<?xml version="1.0" encoding="utf-8"?>
<!-- Generator: Adobe Illustrator 28.0.0, SVG Export Plug-In . SVG Version: 6.00 Build 0)  -->
<svg version="1.1" id="Layer_1" xmlns="http://www.w3.org/2000/svg" xmlns:xlink="http://www.w3.org/1999/xlink" x="0px" y="0px"
	 viewBox="0 0 250 35" style="enable-background:new 0 0 250 35;" xml:space="preserve">
<style type="text/css">
	.st0{fill:#231F20;}
</style>
<g>
	<path class="st0" d="M9.9,3.6c0.1,0,0.5-0.1,0.6-0.3c0.1,0,0.7,0.1,0.9,0.1c0.5,0.1,0.9-0.1,1.4,0c0.4,0.1,0.9-0.1,1.2,0
		c0.4,0.1,0.7,0.4,1,0.7h0.4c0.2,0.1,0.4,0.3,0.5,0.4l0.1,0.1c0.1,0.1,0.2,0.6,0.4,0.7c0.1,0.1,0.2,0,0.4,0.1
		c0.2,0.3,0.2,0.4,0.4,0.4l0.1,0.1c0,0.1,0,0.1,0,0.3c0.1,0.3,0.4,0.4,0.5,0.7L18,7.9L18.1,8c0.1,0.3,0.1,0.7,0.1,1.2
		c0,0.1,0.1,0.3,0.2,0.6c0,0.3,0,0.4,0,0.7c0,0.1,0.1,0.6,0.1,0.7c-0.1,0.4-0.2,1.2-0.1,1.8c0,0.3-0.1,0.7-0.1,1.1v0.6
		c0,0-0.1,0.1-0.1,0.3v0.3c-0.1,0.3-0.1,0.6-0.1,0.9c-0.1,0.3-0.2,0.7-0.4,0.9c-0.1,0.3-0.1,0.4-0.1,0.6l-0.1,0.3c0,0.1,0,0.1,0,0.3
		c-0.1,0.3-0.4,0.4-0.5,0.6c-0.1,0.1-0.1,0.3-0.1,0.3c-0.2,0.3-0.9,1.2-1,1.5C16,21,16,21.3,16,21.5c0.2,0.4,0.4,1.1,0.6,1.5
		c0.1,0.3,0.2,0.7,0.2,1.1c0.1,0.1,0.2,0.1,0.2,0.3c0.2,0.6,0.4,1.2,0.6,1.8c0.1,0.3,0.2,0.4,0.4,0.7c0.2,0.6,0.2,1.2,0.5,1.7
		c0.1,0.1,0.2,0.3,0.2,0.4c0.1,0.1,0,0.3,0.1,0.4c0,0.1,0.1,0.3,0.2,0.4c0.1,0.1,0.2,0.1,0.4,0.3c0,0.1,0,0.3,0,0.3l-0.1-0.1
		c-0.2,0.3-0.7,0-1.1,0.1c-0.2,0.1-0.4,0.1-0.6,0c-0.1,0-0.4,0.1-0.5,0.1s-0.4-0.1-0.5-0.1c-0.7,0.1-1.6,0.1-2.2,0.1
		c-0.1-0.1-0.1-0.1-0.1-0.3c0.1-0.1,0.6-0.7,0.6-1.1c-0.4-0.3-0.2-0.7-0.5-1.2c-0.3-0.4-0.5-1.2-0.6-1.7c0-0.1,0-0.3-0.1-0.4
		c0-0.1-0.1-0.1-0.1-0.3c-0.1-0.1-0.1-0.3-0.1-0.6L13.3,25l-0.1-0.6C13.1,24.2,13,24,13,23.9c-0.1-0.3,0-0.4-0.1-0.6
		c-0.1,0-0.1-0.1-0.2-0.1c-0.2,0.6-1.4,0.7-1.4,1.4c0.2,0.4,0,1.2,0,1.8c0,0.3,0.1,0.4,0.1,0.7c0,0.1-0.1,0.3-0.1,0.6
		c0,0.1,0.1,0.9,0.1,1.1s-0.1,0.1-0.1,0.4c0.1,0.1,0.1,0.3,0.2,0.4c0.2,0.3,0.4,0,0.4,0.4c-0.3,0.4-0.3,0.5-0.3,0.5
		c-0.2,0.3-0.9-0.1-1.2,0c-0.2,0.1-0.6-0.1-0.7-0.1c-0.1,0-0.2,0.3-0.2,0.3l-0.9-0.2c-0.4,0-0.7-0.1-1.1,0c-0.1,0-0.2,0-0.4,0
		c-0.1,0-0.2,0-0.4,0c0-0.1-0.1-0.3,0-0.6c0.1-0.3,0.5-0.4,0.5-0.9C7,29.2,6.9,27.4,6.9,27c0-0.1,0-0.3,0.1-0.3c0-0.4,0-0.9,0-1.4
		c0-0.1,0.1-0.4,0.1-0.7c-0.2-0.6-0.2-1.9-0.1-2.7c0-0.3-0.1-0.3-0.1-0.7C6.9,21,7,20.5,7,20.3c0,0-0.1-0.1,0-0.3
		c0-0.3,0.1-0.4,0.1-0.7c0-0.3,0-0.6-0.1-0.7c0-0.3,0.1-0.4,0.1-0.7c0-0.4,0-0.9,0-1.5c0-0.1,0-0.3,0-0.4s0-0.3,0-0.4
		c0-0.3,0.1-0.3,0.1-0.4c0-0.1-0.1-0.3-0.1-0.6c0.1-0.7,0.1-2.1,0-2.7c0-0.1,0.1-0.4,0.1-0.6c0-0.3-0.1-0.6-0.1-0.7
		c0-0.3,0-0.7,0.1-1.1C6.8,8.7,7,8,7.1,7.3c0-0.1,0-0.3,0-0.4C7.1,6.2,7,5.7,7,5C6.8,4.9,6.5,4.7,6.5,4.1c0.7-0.6,1.7,0,2.5-0.3
		C9.4,3.6,9.6,3.7,9.9,3.6C9.8,3.4,9.8,3.6,9.9,3.6L9.9,3.6z M10.9,9c0.2,0.3,0.1,1.2,0.1,1.5v0.7c0,0.1-0.1,0.3-0.1,0.4
		c0.1,0.4,0.1,0.9,0.1,1.5c0,0.3-0.1,0.4-0.1,0.7c0,0.3,0.2,0.7,0.1,1.1c0,0.1-0.1,0.3-0.1,0.3v1.4c0,0,0.1,0.1,0.1,0.3
		c0.1,0.3-0.1,0.6,0,0.7l0,0c0.1-0.3,0.4-0.3,0.6-0.4l0.4-0.6c0.1-0.1,0.2-0.1,0.5-0.3c0.1-0.1,0.1-0.4,0.2-0.6
		c0.1-0.1,0.2-0.1,0.4-0.3c0.1-0.1,0.2-0.6,0.4-0.7c0.1-0.3,0.5-0.4,0.5-0.7c0.1-0.1,0-0.3,0.1-0.4c0.1-0.3,0.2-0.4,0.2-0.7
		c0.1-0.4,0-1.1-0.1-1.4c0-0.1,0-0.3,0-0.3c0-0.1-0.1-0.4-0.2-0.6c-0.1-0.1,0-0.3-0.1-0.6l-0.4-0.4c0-0.1-0.1-0.1-0.1-0.3
		c-0.1-0.1-0.2,0-0.4-0.1c-0.1,0-0.1-0.3-0.2-0.3c-0.2-0.1-0.6-0.1-0.9-0.1C11.5,9,10.9,8.4,10.9,9L10.9,9z"/>
	<path class="st0" d="M25.4,30.3c0.1,0.1,0.1,0.3,0.1,0.6c-0.1,0-0.1,0.1-0.2,0.3c-0.2,0-0.5-0.3-0.7-0.1c-0.1,0-0.6,0.1-0.9,0.1
		c-0.1,0-0.4-0.1-0.5-0.1l-0.1,0.1c-0.1,0.1-0.5-0.1-0.6-0.1L22,31.2c-0.2,0-0.9-0.1-0.9-0.1c-0.1,0-0.1,0.1-0.4,0.3
		c-0.2-0.3-0.4-0.3-0.4-0.7c0.1-0.1,0.5-0.6,0.6-0.7c0.1-0.3,0-0.4,0.1-0.7c0.1-0.4,0.2-0.9,0.2-1.4c0.1-0.3,0-0.4,0.1-0.7
		c0.1-0.3,0.2-0.3,0.5-0.4c0.1-0.1,0.2-0.4,0.4-0.6c0.1-0.1,0.2-0.1,0.4-0.3l0.4-0.6c0.4-0.4,0.7-0.7,1.1-1.2
		c0.1-0.1,0.2-0.4,0.4-0.6c0.1,0,0.1-0.1,0.2-0.1c0.1-0.1,0.1-0.3,0.2-0.4c0.9-0.9,1.5-1.8,2.4-2.7c0.5-0.4,0.7-1.1,1.4-1.2
		c0.1,0,0.4,0,0.5,0c0.2,0.1,0.5,0,0.7,0.1c0.2,0.1,0.5,0.6,0.9,0.6l0,0c-0.1-0.1-0.4-0.4-0.5-0.7c0-0.1,0-0.3-0.1-0.3
		c-0.2-0.4-0.5-0.6-0.5-1.5c0.2-0.3,0.4-0.7,0.5-1.2c0.1-0.1,0.2-0.1,0.2-0.3c0.2-0.3,0.5-0.6,0.7-0.7c0.2-0.3,0.4-0.7,0.7-0.7
		c0.1,0.3,0.2,0.7,0.2,1.1c0,0.1,0,0.3,0,0.6c0,0.1,0.1,0.4,0.1,0.6c0,0.3,0,0.4,0,0.6c0,0.1,0.1,0.1,0.1,0.3c0,0.2,0,0.3,0,0.3
		c0,0.1,0.1,0.1,0.1,0.3s0,0.3,0,0.6c0.1,0.3,0.1,0.6,0.2,0.9v0.1l0.1,0.1c0,0.1,0,0.3,0,0.4c0.1,0.3,0.2,0.4,0.2,0.7
		c0,0.1,0,0.4,0,0.6c0,0.1,0.1,0.3,0.1,0.4c0.1,0.3,0,0.4,0.1,0.7c0,0.1,0.1,0.1,0.1,0.3c0.1,0.4,0.1,0.9,0.2,1.4l0.2,0.7
		c0,0.3,0.1,0.4,0.1,0.7c0,0.1,0.1,0.3,0.1,0.4c0.1,0.3,0,0.6,0.1,1.1c0,0.1,0.1,0.3,0.1,0.4v0.4c0,0.3,0.1,0.4,0.1,0.7
		c0,0.3-0.1,0.3,0,0.4c0.1,0.4,0.6,0.6,0.7,1.1c-0.1,0.1,0,0.3-0.1,0.3l-1,0.1c-0.1,0-0.2-0.1-0.4-0.1c-0.2,0-0.6,0.1-0.7,0
		c-0.1,0-0.2-0.1-0.4-0.1s-0.5,0.3-0.7,0.1c-0.1,0-0.5-0.1-0.6-0.1c-0.2,0.1-0.6,0.1-0.9,0.1c-0.1-0.3-0.1-0.3-0.1-0.7
		c0.1-0.1,0.6-0.4,0.6-0.7l0.5-0.1c-0.1-0.1-0.1-0.4-0.1-0.7c-0.1-0.3,0-0.3-0.1-0.6c0-0.1-0.1-0.3-0.1-0.3c0-0.1,0-0.3,0-0.4
		c-0.1-0.3-0.1-0.7-0.2-1.1s0-0.7-0.1-1.1c0-0.1-0.1-0.3-0.2-0.6s0-0.4-0.1-0.6c-0.1-0.1-0.1-0.1-0.2-0.1c-0.2,0.6-0.6,0.9-1,1.2
		c-0.1,0.1-0.1,0.3-0.1,0.3l-0.1,0.6c-0.1,0.1-0.1,0.3-0.1,0.3c-0.1,0.1-0.2,0.1-0.5,0.3L27.6,27c-0.1,0-0.1,0-0.1,0.1
		c-0.1,0.1-0.1,0.3-0.1,0.4c-0.1,0.1-0.4,0.1-0.5,0.3c-0.2,0.1-0.4,0.6-0.5,0.7c-0.1,0.1-0.4,0.1-0.5,0.3c-0.1,0.1-0.2,0.3-0.4,0.4
		c-0.1,0.1-0.2,0.1-0.4,0.3c0.1,0.1,0.1,0.3,0.1,0.4C25.2,30.2,25.4,30.3,25.4,30.3L25.4,30.3z M28.6,3.6c0.1,0,0.4,0,0.5-0.1
		c0.1,0,0.1,0,0.2,0.1c0.1,0,0.2,0,0.2-0.1c0.1,0,0.2,0,0.2,0.1c0.2,0.1,0.6-0.1,0.7,0c0.1,0,0.2,0.1,0.2,0.3
		c0.1,0.3-0.2,0.9-0.4,1.4c0.2,0.1,0.1,0.3,0.1,0.7c0,0.3,0.1,0.4,0.2,0.6c0.1,0.1-0.1,0.4,0,0.6c0.1,0.3,0.2,0.4,0.2,0.7
		c0,0.1,0,0.1,0,0.3s0.1,0.1,0.1,0.3c0,0.3,0,0.4,0.1,0.6c0.1,0.3,0.1,0.4,0.2,0.7l0.1,1.2c0.1,0.3,0.2,0.7,0.4,1.2l0.1,0.9
		c0.1,0.3,0.1,0.4,0.1,0.7c-0.4,0.3-0.6,0.3-1,0.6c-0.1,0-0.2,0.3-0.2,0.3h-0.4c-0.2,0.1-0.6,0.4-1,0.6c-0.1-0.1-0.4-0.3-0.5-0.4
		c-0.1-0.1,0-0.3-0.1-0.4c-0.1-0.3-0.2-0.4-0.4-0.6c-0.2-0.2,0-0.3-0.1-0.3c-0.1,0.3-0.4,0.7-0.5,1.1c-0.1,0.1,0,0.3-0.1,0.4
		s-0.1,0.1-0.2,0.3c-0.1,0.3-0.2,0.7-0.5,0.9c-0.1,0.1-0.2,0.1-0.5,0.3c-0.1,0.1-0.2,0.3-0.5,0.4L25,17.4c-0.1,0.1-0.2,0.3-0.5,0.3
		c-0.2,0.1-0.9,0.1-1,0.4h0.1c0.1,0.1,0.2-0.1,0.4,0c0.4,0.1,1.6,0,1.7,0.6c0.1,0.1,0.1,0.3,0.1,0.6c-0.1,0.1-0.4,0.4-0.5,0.7
		c-0.1,0.1-0.1,0.3-0.1,0.4c-0.1,0.3-0.4,0.3-0.5,0.6c-0.2,0.6-0.5,1.1-0.7,1.5c-0.1,0.1-0.4,0.6-0.5,0.7c-0.1,0.1-0.1,0.1-0.2,0.3
		c-0.1,0.1,0,0.1-0.1,0.3c-0.1,0.1-0.2,0.3-0.5,0.6c-0.1,0.3-0.1,0.4-0.2,0.7c-0.2,0.3-0.5,0.4-0.7,0.7c-0.2,0.3-0.1,0.7-0.6,0.7
		c0,0,0,0-0.1,0v-0.1c-0.1-0.3,0.1-0.4,0.1-0.7c0-0.1,0-0.3,0-0.4c0-0.1,0.1-0.4,0.1-0.6c0,0,0.1-0.1,0.1-0.3v-0.4
		c0-0.1,0.1-0.3,0.2-0.4c0-0.1,0-0.3,0.1-0.6c0.1-0.3,0.1-0.6,0.2-0.7c0-0.3,0-0.6,0-0.7c0-0.1,0.1-0.1,0.1-0.3v-0.3
		c0.1-0.1,0.2-0.3,0.2-0.6c0.1-0.3,0-0.6,0.1-0.7c0.1-0.1,0.1-0.4,0.2-0.6c0-0.3,0-0.4,0-0.7c0-0.1,0.1-0.4,0.2-0.6v-0.4
		c0-0.1,0.1-0.3,0.2-0.6c0.1-0.3,0.1-0.9,0.1-1.2c0.1,0,0.1,0,0.1-0.1c0.1-0.3,0.1-0.9,0.2-1.4c0-0.1,0.1-0.3,0.1-0.4s0-0.3,0-0.6
		c0-0.1,0.1-0.3,0.2-0.6c0-0.3,0-0.4,0-0.7c0-0.1,0.1-0.3,0.2-0.4v-0.3c0.1-0.3,0.1-0.7,0.2-1.1c0-0.3,0-0.4,0-0.6s0.1-0.3,0.2-0.4
		c0.1-0.3,0-0.6,0-0.7c0-0.1,0.1-0.1,0.1-0.3c0.1-0.1,0-0.4,0.1-0.7c0-0.3,0.1-0.4,0.1-0.7c0-0.1,0.1-0.4,0.1-0.7
		c-0.1-0.3-0.4-0.4-0.4-1.1l0.1-0.1c0.6,0,1.1,0,1.7,0c0.2,0,0.6,0,0.7-0.1C28.3,3.4,28.4,3.4,28.6,3.6L28.6,3.6z"/>
	<path class="st0" d="M36.2,4.8c0,0.1,0,0.3,0,0.3l0.1,0.1c0.1,0.3-0.1,0.3,0,0.6c0.1,0.1,0.2,0.4,0.2,0.7V7
		c0.1,0.3,0.2,0.4,0.2,0.7c0,0.3,0,0.4,0,0.7c0,0.1,0.1,0.3,0.1,0.4c0,0.3,0,0.6,0.1,0.9c0.1,0.4,0.2,1.1,0.5,1.5
		c0.1,0.3-0.1,0.4,0,0.7c0,0.1,0.1,0.3,0.1,0.4c0,0.1,0,0.3,0.1,0.6c0,0.1,0.1,0.3,0.2,0.3l0.1,0.3c-0.1,0.3,0.2,0.7,0.4,1.1v0.6
		c0.1,0.3,0.2,0.9,0.2,1.2v0.3c0.1,0.3,0.2,0.4,0.2,0.7c0.1,0.4,0,0.9,0.1,1.4c0,0.1,0.1,0.1,0.1,0.3v0.3c0,0.1,0.2,0.9,0.1,0.9
		l-0.1,0.1c0,0.1,0,0.1,0.1,0.3h0.1c0,0,0,0,0.1-0.1c0-0.6,0-1.2,0.1-1.7c0-0.1,0.1-0.3,0.2-0.6c0.1-0.4,0-0.9,0.1-1.2
		c0-0.1,0.1-0.3,0.1-0.3c0.1-0.3,0-0.7,0.1-0.9l-0.1-0.1c0-0.1,0.1-0.7,0.1-0.9v-0.3c0-0.1,0.1-0.1,0.1-0.3c0.1-0.4,0-0.9,0.1-1.4
		c0.1-0.3,0.2-0.4,0.2-0.7v-0.3c0.1-0.3,0.1-0.9,0.2-1.2l0.1-0.3c0.1-0.3,0.2-1.4,0.4-1.7c0.1-0.6,0.2-1.2,0.4-1.7
		c0,0,0.1-0.1,0.1-0.3c0.1-0.3,0-0.4,0-0.6c0-0.3,0.2-0.9,0.4-1.1c0-0.1,0-0.3-0.1-0.4c0,0-0.5-0.7-0.6-0.7c0-0.3,0.1-0.3,0.2-0.4
		c0.2,0,0.4,0.1,0.6,0.1h0.4c0.5,0,0.9,0,1.2-0.1c0.2-0.1,0.4,0.1,0.7,0.1c0.1,0,0.4,0,0.5,0s0.4,0,0.5-0.1c0.2,0,0.6,0.1,0.9,0.1
		l0,0l0,0c0,0.1,0,0.3,0,0.4c0,0-0.1,0.1-0.1,0.3c-0.1,0.1-0.2,0.1-0.4,0.3c0,0,0,0.1,0,0.3h-0.2v0.6c0,0.1-0.2,0.3-0.2,0.6
		c0,0.1,0,0.6,0,0.7c0,0.1,0,0.1-0.1,0.3c0,0.3,0.1,0.3,0,0.6c-0.1,0.4-0.2,0.7-0.4,1.2c-0.1,0.3,0,0.6-0.1,1.1
		c-0.1,0.3-0.2,0.7-0.4,1.2c0,0.1,0,0.3,0,0.6c-0.1,0.4-0.1,0.9-0.2,1.2c0,0.1,0,0.3,0,0.4c0,0.1-0.1,0.3-0.2,0.4
		c0,0.3,0,0.4-0.1,0.7c-0.1,0.7-0.4,1.5-0.6,2.2c-0.1,0.3,0,0.7-0.1,1.1c-0.1,0.3-0.2,0.7-0.2,1.1c-0.1,0.3,0,0.4,0,0.7
		c0,0.1-0.2,0.3-0.2,0.4c-0.1,0.3,0,0.7-0.1,1.2l-0.1,0.1v0.4l-0.1,0.3c0,0.1,0,0.1,0,0.3c0,0-0.1,0.1-0.1,0.3c0,0,0,0.1,0,0.3
		c0,0.1-0.1,0.1-0.1,0.1c0,0.1,0.1,0.4,0,0.7c0,0.1-0.1,0.3-0.1,0.4c-0.1,0.3,0,0.4-0.1,0.7c0,0-0.1,0.1-0.1,0.3
		c-0.1,0.3,0,0.6-0.1,0.9c0,0.1-0.1,0.3-0.2,0.4c0,0.3,0,0.4-0.1,0.7c0,0.1-0.1,0.3-0.1,0.4c-0.1,0.4-0.1,1.2-0.4,1.5
		c0,0.6,0.2,0.7,0.5,1.1c0,0.1-0.1,0.3-0.1,0.3c-0.1,0-0.6,0.3-0.7,0.3l-0.1-0.1H40c-0.2-0.1-1-0.1-1.2,0h-0.5l-0.1,0.1
		c-0.1,0.1-0.2-0.1-0.5-0.1c-0.4,0-0.7,0.1-0.9,0.1c-0.1-0.1-0.2-0.3-0.4-0.4c0-0.4,0.2-0.4,0.4-0.7c0-0.1,0-0.1,0.1-0.3
		c0-0.3-0.1-0.3-0.2-0.6c0-0.3,0-0.4-0.1-0.7c-0.1-0.3-0.1-0.7-0.2-0.9l-0.3-0.6c-0.1-0.3-0.2-0.7-0.2-0.9c0-0.3,0-0.4,0-0.6
		c-0.1-0.1-0.2-0.3-0.2-0.4v-0.6c0-0.3-0.1-0.6-0.1-0.7c0-0.1-0.1-0.3-0.2-0.3c-0.1-0.3,0-0.6-0.1-0.9c-0.1-0.7-0.4-1.8-0.5-2.6
		c0-0.1,0-0.3,0-0.4c0-0.1-0.1-0.3-0.2-0.4v-0.4c0-0.1-0.1-0.3-0.2-0.6c-0.1-0.3,0-0.6,0-0.7c-0.1-0.4-0.2-0.9-0.4-1.4
		c0-0.3,0-0.4,0-0.7c0-0.1-0.1-0.3-0.2-0.3c0-0.1,0-0.3-0.1-0.6c0-0.1-0.1-0.3-0.1-0.4c-0.1-0.3,0.1-0.4,0-0.7
		c-0.1-0.4-0.2-1.1-0.5-1.5c0-0.3,0-0.6-0.1-0.9c0-0.1-0.1-0.3-0.1-0.4c-0.1-0.3,0-0.6,0-0.7c0-0.3-0.2-0.4-0.2-0.7V8.1
		c0-0.3-0.2-0.4-0.2-0.7c-0.1-0.3,0.1-0.3,0-0.6l-0.1-0.1c0-0.1,0-0.3,0-0.3s-0.1-0.1-0.1-0.3c-0.1-0.3,0-0.7-0.1-1.1
		c0-0.1-0.2-0.1-0.2-0.3c-0.1-0.3-0.1-0.6-0.2-0.6c0-0.3,0.1-0.3,0.1-0.6c0.2,0,0.6-0.1,0.9,0c0.2,0,0.4,0,0.6,0s0.4,0,0.5,0
		c0.1,0,0.2,0,0.2,0.1c0.1,0,0.5,0,0.7,0c0.4,0,1.4-0.1,1.6,0H36C36.7,4.3,36.5,4.3,36.2,4.8C36.4,4.7,36.4,4.7,36.2,4.8L36.2,4.8z"
		/>
	<path class="st0" d="M57.6,25.8c0.1,0,0.1,0,0.2,0s0.2,0.1,0.5,0c0.2,0,0.4,0.1,0.5,0.1c0,0,0.2-0.1,0.2-0.3c0-0.1,0-0.1,0-0.3
		l0.2-0.3h0.2c0.2,0.4,0.2,1.5,0.1,2.2c0,0.1,0,0.3,0.1,0.4c0.1,0.4,0,1.4,0,1.7c-0.1,0.4,0.1,1.1,0,1.2c-0.1,0.3-0.4,0.3-0.6,0.3
		c-0.1-0.1-0.6,0-0.7,0h-1h-0.7c-0.2,0-0.4,0-0.6,0h-0.1c-0.1,0-0.2,0-0.4,0h-0.9H54c-0.1,0-0.2-0.1-0.4-0.1c-0.1,0-0.2,0.1-0.4,0.1
		c-0.2,0-0.5-0.3-0.6-0.1c-0.1,0-0.4,0.3-0.5,0.3c-0.4-0.1-1-0.3-1.4-0.1h-0.2c-0.2,0-0.6,0-0.7,0.1c-0.1,0-0.5-0.1-0.7-0.1
		c0-0.1,0-0.1-0.1-0.3c0.1-0.3,0.5-0.9,0.6-1.2c0-0.1-0.1-0.6-0.1-0.7c-0.1-0.3,0-0.6,0.1-0.7c0-0.3,0-0.7-0.1-1.1l0.1-0.3
		c0.1-0.6-0.2-0.9-0.1-1.4c0.1-0.3,0.2-0.6,0.1-0.9c0-0.1-0.1-0.1-0.1-0.3c0-0.1,0.1-0.3,0.1-0.6c0-0.3-0.1-0.4-0.1-0.6
		s0.1-0.3,0.1-0.6c-0.1-0.4,0-1.4,0.1-1.8c0.1-0.4-0.2-0.9-0.1-1.4l0.1-0.3c0.1-0.3-0.1-1.1-0.1-1.5c0.1-0.3,0.1-0.7,0.1-1.1
		c0-0.3,0-0.7-0.1-1.1c0-0.1,0.1-0.6,0.1-0.7c0-0.3-0.1-0.4-0.1-0.6c0-0.3,0-0.6,0.1-0.7c0-0.4,0-0.9,0-1.5c0-0.1,0.1-0.3,0.1-0.4
		s-0.1-0.3-0.1-0.3c-0.1-0.3,0.1-1.2,0.1-1.8c-0.1-0.3,0-0.9,0-1.2c0-0.7,0-1.7,0-2.6c0-0.3,0.1-0.4,0-0.7c-0.2-0.1-0.6-0.4-0.6-1.1
		h0c0.1-0.1,0.4,0.1,0.5,0c0.1,0,0.4-0.1,0.5-0.1h0.7c0,0,0.1,0,0.2,0c0.1,0,0.5,0.1,0.6,0.1l0.1-0.1c0.2,0,0.4,0.1,0.5,0.1
		c0.2-0.1,0.6-0.1,1-0.1c0.5,0,1,0.1,1.4,0.1h0.5l0.1-0.1c0.1,0,0.6,0.3,0.9,0.3c0.1,0,0.4-0.1,0.5-0.1h0.1h0.4
		c0.4-0.1,0.9,0.1,1.2,0c0.4-0.1,1.1,0,1.5,0c-0.1,0.4-0.1,0.9-0.1,1.2c0.1,0.3-0.1,1.2,0,1.7c0,0.1,0,0.9,0,1.1
		c0,0-0.1,0.1-0.1,0.3c0,0.1,0,0.3,0,0.3c0,0.4,0,0.9,0,1.4c-0.1,0.1-0.1,0.1-0.2,0.3c-0.4,0-0.2-0.3-0.5-0.6l-0.2-0.3
		c-0.2,0-0.6,0.1-0.7,0l-0.1-0.1c-0.1,0-0.2,0.3-0.5,0.1c-0.5-0.1-1.5-0.3-2-0.1c-0.2,0.1-0.4-0.1-0.5-0.1c-0.5,0-1.2,0-1.6,0
		c0,0,0,0.1,0,0.3c0.1,0.3-0.1,0.6,0,1.1c0,0.1,0.1,0.3,0.1,0.4c0.1,0.3-0.1,1.5-0.1,1.8c0,0.3,0.1,0.4,0.1,0.7
		c0,0.3-0.1,0.7-0.1,1.2c0,0,0.1,0.1,0.1,0.3c0,0.3-0.1,0.4-0.1,0.7c0.1,0.7-0.1,1.5-0.1,2.5c0.1,0,0.1,0.1,0.2,0.1
		c0.1-0.3,0.4-0.3,0.6-0.4c0.1-0.1,0.2-0.3,0.2-0.4c0.1-0.1,0.4-0.1,0.5-0.3c0.1,0,0.1-0.1,0.1-0.3c0.2-0.1,0.5-0.1,0.6-0.3l0.1-0.3
		h0.1c0.4-0.1,0.6-0.6,0.9-0.7c0.2-0.1,0.5-0.3,0.7-0.4c0.1-0.1,0.1-0.3,0.2-0.3c0.1-0.1,0.4,0,0.5-0.1c0.2-0.1,0.2-0.3,0.5-0.3
		c0.1,0.1,0.1,0.3,0.1,0.7c0.1,0.1,0,0.4,0,0.7c0,0.3,0.1,0.6,0.1,1.1c0,0.6-0.1,1.4-0.1,1.8c0.1,0.6,0.1,1.7,0,2.2
		c-0.1,0-0.2,0-0.4,0c0,0,0,0-0.1,0c-0.1-0.1-0.1-0.4-0.2-0.6c-0.1,0-0.2,0-0.2,0c-0.2,0.1-0.5,0.4-0.7,0.7c-0.1,0-0.1,0-0.2,0.1
		c-0.2,0.1-0.7,0.4-0.9,0.6c-0.2,0.1-0.4,0.4-0.5,0.7l-0.5,0.1c-0.4,0.1-0.7,0.6-1,0.9c-0.2,0.1-0.5,0.1-0.6,0.3
		c-0.1,0.1-0.1,0.3-0.2,0.4c0,0.7,0,1.5,0.1,2.2c0,0.1-0.1,0.3-0.1,0.6c0.1,0,0.1,0,0.1,0.1c0.2-0.3,0.6,0,0.9,0
		c0.1,0,0.1-0.1,0.2-0.1s0.2,0.1,0.5,0.1c0.5-0.1,1.2,0,1.7,0.1v-0.1C57.1,25.8,57.4,25.8,57.6,25.8L57.6,25.8z"/>
	<path class="st0" d="M66.4,3.8c0.1,0.1,0.1,0.3,0.1,0.6c-0.1,0.1-0.2,0.3-0.5,0.4c0,0.1,0,0,0,0.1c0.1,0.1,0.2,0.1,0.2,0.1
		c0.1,0.1,0.1,0.3,0.1,0.6c0,0.1,0.1,0.1,0.2,0.3c0.1,0.1,0.1,0.3,0.1,0.6C66.7,6.8,66.8,7,66.8,7c0,0.1,0,0.1,0,0.3l0.1,0.1
		C67,7.6,67,7.9,67.1,8.2c0.1,0.3,0.2,0.4,0.4,0.7c0.1,0.3,0.1,0.6,0.2,0.9c0.1,0.3,0.2,0.4,0.5,0.7c0.1,0.3,0.2,0.7,0.4,1.2
		c0.1,0.1,0.2,0.3,0.2,0.3c0.1,0.1,0,0.3,0.1,0.4l0.1,0.3c0.1,0.3,0.1,0.4,0.2,0.7l0.1,0.1c0.1,0.1,0.1,0.4,0.1,0.6
		c0.1,0.3,0.4,0.6,0.5,0.9c0.1,0.1,0.1,0.4,0.1,0.6c0.1,0.1,0.2,0.3,0.2,0.3s0,0.1,0,0.3c0.1,0.1,0.2,0.3,0.2,0.6l0.1,0.3
		c0.1,0.1,0.2,0.3,0.2,0.3c0.1,0.3,0.4,1.2,0.5,1.4l0,0c0,0,0-0.1,0-0.3c-0.1-0.1-0.1-0.7-0.1-1.1c0.1-0.4,0-0.9,0-1.4v-1.1
		c0-0.1,0.1-0.4,0-0.6c0-0.1-0.1-0.3-0.1-0.6c0-0.1,0.1-0.4,0-0.7c-0.1-0.3,0.1-0.4,0.1-0.7c0-0.1-0.1-0.6-0.1-0.7
		c0,0,0.1-0.1,0.1-0.3c-0.1-0.7-0.1-1.7,0-2.2c0.1-0.4-0.1-0.7-0.1-1.1c0.1-0.9,0-2.2,0.1-3C71,5,70.7,4.5,70.7,4h0.8
		c0.1-0.1,1.2-0.3,1.6-0.1c0.2-0.4,0.6-0.3,0.7-0.3c0.1,0,0.1-0.1,0.2-0.1c0.7,0.3,1.6,0,2.5,0.1c0,0.1,0.1,0.1,0.1,0.3
		s-0.1,0.3-0.2,0.3c0,0.1,0,0.1-0.1,0.3c-0.1,0.3-0.4,0-0.4,0.7c0.2,0.3-0.1,0.9,0,1.5c0.1,0.4,0.1,0.9,0,1.4
		c-0.1,0.4,0,1.2,0.1,1.5c0,0.4-0.1,0.4,0,0.7c0.1,0.3-0.1,0.4-0.1,0.7c0,0.1,0.1,0.6,0,0.7c0,0.1-0.1,0.3-0.1,0.4
		c0,0.3,0.1,0.4,0.1,0.7c0,0.1,0,0.4,0,0.6c0,0.3,0.1,0.3,0,0.6c-0.1,0.4,0.1,0.7,0.1,1.1c0,0.3-0.1,1.1-0.1,1.5
		c0,0.1,0.1,0.7,0.1,0.7c0,0.3-0.1,0.7-0.1,1.2c0,0.1,0.1,0.4,0.1,0.7c0,0.1-0.1,0.3-0.1,0.4c0,0.1,0.1,0.4,0.1,0.7
		c0,0.1-0.1,0.4-0.1,0.6c0,0.4,0,1.1,0.1,1.4c0,0.1,0,0.3-0.1,0.4c0,0.1,0,0.3,0.1,0.3c0,0.1,0,0.3,0,0.3c0,0.1,0,0.3,0.1,0.4
		c0.1,0.3-0.1,0.4-0.1,0.9c0,0.1,0.1,0.1,0.1,0.3c0,0.1-0.1,0.3-0.1,0.4c0,0.1,0.1,0.3,0.1,0.4c0,0-0.1,0.1-0.1,0.3
		c0,0.1,0.1,0.4,0.1,0.7C76,27.7,76,28.3,76,28.9c0.2,0.3,0.7,0.6,0.7,1.4c-0.1,0.1-0.1,0.1-0.1,0.3c-0.2,0.3-0.9-0.1-1.1,0
		c-0.1,0-0.1,0.1-0.2,0.1s-0.2-0.1-0.4-0.1c-0.1,0-0.2,0.1-0.4,0.1c-0.1,0-0.2-0.1-0.5-0.1c-0.1,0-0.4,0.1-0.5,0.1
		c-0.1,0-0.1-0.1-0.2-0.1c-0.4,0.1-0.9,0-1.4-0.1c0-0.1,0-0.1-0.1-0.3c0.1-0.1,0.4-0.7,0.5-0.9c-0.5-0.4-0.7-1.7-1-2.5
		c-0.2-0.6-0.6-1.1-0.7-1.5c0-0.1-0.1-0.3-0.1-0.4c-0.1-0.1-0.1-0.3-0.2-0.3c0-0.1,0-0.3-0.1-0.4c-0.1-0.3-0.4-0.6-0.5-0.9
		c-0.1-0.3-0.1-0.6-0.2-0.7c-0.1-0.3-0.4-0.6-0.5-0.7c-0.1-0.1-0.1-0.4-0.1-0.6c-0.1-0.1-0.2-0.3-0.2-0.4c-0.1-0.1-0.1-0.4-0.1-0.7
		c0-0.1-0.1-0.1-0.1-0.3c0-0.2,0-0.3,0-0.3c-0.1-0.1-0.2-0.1-0.2-0.4c0-0.1,0-0.3-0.1-0.4l-0.7,0c-0.1-0.1-0.1-0.3-0.1-0.4
		c-0.1-0.1-0.2-0.3-0.2-0.3L67,17.1c-0.2-0.4-0.5-0.9-0.6-1.4h-0.1V16c0.1,0.3-0.1,0.7,0,1.1c0.1,0.3,0.1,1.4,0.1,1.9
		c0,0.3-0.1,0.4-0.1,0.7c0,0.1-0.1,0.7,0,0.9c0.1,0.6,0.1,1.4,0,1.9c-0.1,0.6,0.1,1.5,0,2.1c0,0.3,0,0.4,0.1,0.7v1.2
		c0,0,0.1,0.1,0.1,0.3l-0.2,0.2c0,0.3,0,0.4,0,0.6c0,0.3,0,0.7,0,1.1s0,0.7,0,1.1c0.2,0.1,0.5,0.6,0.5,1.1C66.7,31,66.7,31,66.6,31
		c-0.4,0.3-1.2,0-1.6,0c-0.9,0.1-2,0.1-3,0c0-0.1-0.1-0.1-0.1-0.3c0.1-0.3,0.5-0.7,0.5-0.9c0-0.1,0-0.3,0-0.3c0-0.6,0-1.2,0-1.7
		c0.1-0.4,0-0.9,0-1.4l0.1-0.7c-0.1-0.6-0.1-1.7,0-2.5c0.1-0.4-0.1-0.9-0.1-1.2c0-0.3,0-0.4,0-0.7s0-0.4,0-0.7s0-0.7,0.1-0.9
		c0-0.1,0-0.3-0.1-0.3c0-0.1,0-0.3,0.1-0.3c0-0.1,0-0.1-0.1-0.3c0-0.1,0-0.3,0.1-0.4c0.1-0.3-0.1-0.6-0.1-0.9c0.1-0.9,0-2.1,0.1-3
		c0-0.3-0.1-0.3-0.1-0.4s0.1-0.3,0.1-0.3c0-0.3,0-0.6,0-0.9c0-0.1,0-0.3,0-0.3s-0.1-0.1-0.1-0.3c0-0.2,0.1-0.7,0.1-1.1
		c0-0.3,0-0.7-0.1-1.1c0-0.1,0.1-0.3,0.1-0.6c0-0.1-0.1-0.3-0.1-0.4c0,0,0.1-0.1,0.1-0.3c0-0.4-0.2-0.9-0.1-1.4c0.1-0.4,0-1.2,0-1.9
		c-0.1-0.1-0.6-0.9-0.6-1.2l0,0c0-0.4,0.4-0.4,0.7-0.3c0,0,0.9,0.1,1.1,0.1l0.7-0.1L64.4,4c0.1,0,0.1-0.1,0.2-0.1
		c0.2,0,0.7,0.1,0.7,0.1l0.1-0.1C65.8,3.8,65.8,4,66,3.8C66.3,3.7,66.3,3.7,66.4,3.8L66.4,3.8z"/>
	<path class="st0" d="M90.7,3.6c0.1,0,0.2,0,0.4-0.1l0.5,0.1c0.4,0,0.6-0.1,1-0.1c0.2,0.1,0.9,0.1,1.1,0c0.1,0,0.2,0.1,0.2,0.1
		c0.1,0,0.7-0.1,0.9-0.1s0.6,0,0.7,0.1h0.7c0.1,0,0.1,0.1,0.2,0.1s0.2-0.1,0.5-0.1c0.1,0,0.4,0.1,0.6,0.1l0.1-0.1
		c0.2-0.1,1.1,0.1,1.2,0.1l1.1-0.3l0.1,0.1c0.2,0.1,0.2-0.1,0.5-0.1c0,0,0.1,0.1,0.2,0.1c0.1,0,0.1,0,0.2-0.1c0.2-0.1,0.6,0,0.7,0.1
		l0.1,0.1c0,0.6,0,0.9-0.1,1.4c0,0.1,0,0.3,0.1,0.4l-0.1,0.1c0,0.1,0.1,1.2,0.1,1.5c0,0.3,0,0.7-0.1,0.9c0,0.3,0.1,0.7,0,1.1
		C101.6,9,101.6,9,101.3,9h-0.2c-0.1-0.1-0.1-0.4-0.4-0.6c-0.4-0.3-0.7,0.1-1.1,0s-0.7,0-0.9,0c-0.5,0.1-1-0.1-1.4-0.1
		c-0.1,0.1-0.1,0.1-0.1,0.3c0.2,0.3,0,0.4,0.1,0.9c0,0.1,0,0.7-0.1,1.1c0,0.3,0.1,0.4,0.1,0.7c-0.1,0.4-0.1,1.2,0,1.8
		c0.1,0.4,0.1,1.2,0,1.8c0,0.4,0,0.9,0,1.4c0,0.3-0.1,0.7-0.1,1.1c0,0.1,0,0.3,0,0.3c0,0.3-0.1,0.9-0.1,1.2c0,0.1,0.1,0.3,0.1,0.3
		c0,0.1,0,0.3,0,0.4c0,0.1,0,0.3-0.1,0.3c0,0.1,0,0.3,0,0.6c0,0.3-0.1,0.6-0.1,0.9s0.1,1.2,0,1.5c0,0.1-0.1,0.3,0,0.3
		c0.1,0.3,0.1,0.9,0,1.2c-0.1,0.3,0,0.4,0.1,0.6c0,0.3-0.1,0.4-0.1,0.7c-0.1,0.3,0.1,0.7,0.1,1.1c0,0.3-0.1,0.6,0,0.9l0.1,0.1
		c0,0.1-0.1,0.3-0.1,0.3c0,0.1,0.1,1.1,0.1,1.1c0.1,0.3,0.5,0.3,0.5,0.7c0.1,0.4-0.1,0.4-0.4,0.4c-0.2,0.3-0.6-0.1-1,0l-0.1,0.1
		c-0.1,0-0.2-0.1-0.2-0.1h-0.1c-0.2,0-0.6-0.1-0.9-0.1c-0.1,0-0.2,0.1-0.4,0.1c-0.1,0-0.4-0.1-0.5-0.1c-0.2,0.1-0.6,0.1-0.9,0.1
		c-0.1-0.1-0.2-0.3-0.2-0.6c0.1-0.1,0.1-0.3,0.2-0.4c0.1-0.1,0.2-0.1,0.2-0.3c0.1-0.3-0.1-0.9,0-1.4c0-0.3,0-1.1-0.1-1.5
		c-0.1-0.3,0.1-0.9,0.1-1.4c0-0.3,0-0.4-0.1-0.7c0.1-0.7,0.1-1.8,0-2.6c0-0.3,0.1-0.3,0.1-0.6l-0.1-0.1c0-0.1,0.1-0.7,0.1-0.9
		c0-0.1-0.1-0.3-0.1-0.4c0-0.4,0.1-0.6,0-1.1c0-0.4,0-1.1,0-1.5c0-0.1,0-0.3,0-0.4c0-0.1-0.1,0-0.1,0c0-0.1,0-0.3,0.1-0.4
		c0-0.3,0-0.7,0-1.1c0-0.1,0.1-0.3,0.1-0.6c0,0-0.1-0.1-0.1-0.3c-0.1-0.3,0-0.6,0.1-0.7c0.1-0.6-0.1-1.5,0-2.1
		c0.1-0.6-0.1-0.9-0.1-1.5c0.1-0.4,0.1-0.9,0.1-1.4c-0.1,0-0.1-0.1-0.2-0.1c-0.5,0.4-0.7-0.1-1.2,0c-0.1,0-0.2,0.1-0.5,0.1
		c0,0-0.1-0.1-0.2-0.1c0,0-0.1,0.1-0.2,0.1S90,8.3,90,8.3c-0.1,0-0.1-0.1-0.2-0.1c-0.2,0-0.5,0.6-0.6,0.7h-0.1
		c-0.1-0.1-0.2-0.1-0.2-0.3C88.7,8.2,89,7.4,89,7.1c0-0.1-0.1-0.3-0.1-0.4C88.8,6.4,89,5.5,89,5.3c0-0.1-0.1-0.3-0.1-0.4
		c0-0.3,0.1-0.4,0-0.7c-0.1-0.6,0.1-1.1,0.5-1.1c0.1,0.1,0.4-0.1,0.6,0l0.1,0.1l0.1-0.1C90.5,3.4,90.5,3.4,90.7,3.6L90.7,3.6z"/>
	<path class="st0" d="M105.1,30.3c0.1,0.1,0.1,0.3,0.1,0.6c-0.1,0-0.1,0.1-0.2,0.3c-0.2,0-0.5-0.3-0.7-0.1c-0.1,0-0.6,0.1-0.9,0.1
		c-0.1,0-0.4-0.1-0.5-0.1l-0.1,0.1c-0.1,0.1-0.5-0.1-0.6-0.1l-0.5,0.1c-0.2,0-0.9-0.1-0.9-0.1c-0.1,0-0.1,0.1-0.4,0.3
		c-0.1-0.3-0.2-0.3-0.2-0.7c0.1-0.1,0.5-0.6,0.6-0.7c0.1-0.3,0-0.4,0.1-0.7c0.1-0.4,0.2-0.9,0.2-1.4c0.1-0.3,0-0.4,0.1-0.7
		c0.1-0.3,0.2-0.3,0.5-0.4c0.1-0.1,0.2-0.4,0.4-0.6c0.1-0.1,0.2-0.1,0.4-0.3l0.4-0.6c0.4-0.4,0.7-0.7,1.1-1.2
		c0.1-0.1,0.2-0.4,0.4-0.6c0.1,0,0.1-0.1,0.2-0.1c0.1-0.1,0.1-0.3,0.2-0.4c0.9-0.9,1.5-1.8,2.4-2.7c0.5-0.4,0.7-1.1,1.4-1.2
		c0.1,0,0.4,0,0.5,0c0.2,0.1,0.5,0,0.7,0.1c0.2,0.1,0.5,0.6,0.9,0.6l0,0c-0.1-0.1-0.4-0.4-0.5-0.7c0-0.1,0-0.3-0.1-0.3
		c-0.2-0.4-0.5-0.6-0.5-1.5c0.2-0.3,0.4-0.7,0.5-1.2c0.1-0.1,0.2-0.1,0.2-0.3c0.2-0.3,0.5-0.6,0.7-0.7c0.2-0.3,0.4-0.7,0.7-0.7
		c0.1,0.3,0.2,0.7,0.2,1.1c0,0.1,0,0.3,0,0.6c0,0.1,0.1,0.4,0.1,0.6c0,0.3,0,0.4,0,0.6c0,0.1,0.1,0.1,0.1,0.3c0,0.2,0,0.3,0,0.3
		c0,0.1,0.1,0.1,0.1,0.3s0,0.3,0,0.6c0.1,0.3,0.1,0.6,0.2,0.9v0.1l0.1,0.1c0,0.1,0,0.3,0,0.4c0.1,0.3,0.2,0.4,0.2,0.7
		c0,0.1,0,0.4,0,0.6c0,0.1,0.1,0.3,0.1,0.4c0.1,0.3,0,0.4,0.1,0.7c0,0.1,0.1,0.1,0.1,0.3c0.1,0.4,0.1,0.9,0.2,1.4l0.2,0.7
		c0,0.3,0.1,0.4,0.1,0.7c0,0.1,0.1,0.3,0.1,0.4c0.1,0.3,0,0.6,0.1,1.1c0,0.1,0.1,0.3,0.1,0.4v0.4c0,0.3,0.1,0.4,0.1,0.7
		c0,0.3-0.1,0.3,0,0.4c0.1,0.4,0.6,0.6,0.7,1.1c-0.1,0.1,0,0.3-0.1,0.3l-1,0.1c-0.1,0-0.2-0.1-0.4-0.1s-0.6,0.1-0.7,0
		c-0.1,0-0.2-0.1-0.4-0.1s-0.5,0.3-0.7,0.1c-0.1,0-0.5-0.1-0.6-0.1c-0.2,0.1-0.6,0.1-0.9,0.1c-0.1-0.3-0.1-0.3-0.1-0.7
		c0.1-0.1,0.6-0.4,0.6-0.7l-0.1-0.1c-0.1-0.1-0.1-0.4-0.1-0.7c0-0.3,0-0.3-0.1-0.6c0-0.1-0.1-0.3-0.1-0.3c0-0.1,0-0.3,0-0.4
		c-0.1-0.3-0.1-0.7-0.2-1.1s0-0.7-0.1-1.1c0-0.1-0.1-0.3-0.2-0.6c-0.1-0.3,0-0.4-0.1-0.6c-0.1-0.2-0.1-0.1-0.2-0.1
		c-0.2,0.6-0.6,0.9-1,1.2c-0.1,0.1-0.1,0.3-0.1,0.3l-0.2,0.1c-0.1,0.1-0.1,0.3-0.1,0.3c-0.1,0.1-0.2,0.1-0.5,0.3l-0.4,0.6
		c-0.1,0-0.1,0-0.1,0.1c-0.1,0.1-0.1,0.3-0.1,0.4c-0.1,0.1-0.4,0.1-0.5,0.3c-0.2,0.1-0.4,0.6-0.5,0.7c-0.1,0.1-0.4,0.1-0.5,0.3
		c-0.1,0.1-0.2,0.3-0.4,0.4c-0.1,0.1-0.4,0.1-0.4,0.3c0.1,0.1,0.1,0.3,0.1,0.4C105,30.2,105.1,30.3,105.1,30.3L105.1,30.3z
		 M108.2,3.6c0.1,0,0.4,0,0.5-0.1c0.1,0,0.1,0,0.2,0.1c0.1,0,0.2,0,0.2-0.1c0.1,0,0.2,0,0.2,0.1c0.2,0.1,0.6-0.1,0.7,0
		c0.1,0,0.2,0.1,0.2,0.3c0.1,0.1-0.2,0.7-0.2,1.2c0.1,0.1,0,0.3,0.1,0.7c0,0.3,0.1,0.4,0.2,0.6c0.1,0.2-0.1,0.4,0,0.6
		c0.1,0.3,0.2,0.4,0.2,0.7c0,0.1,0,0.1,0,0.3c0,0.1,0.1,0.1,0.1,0.3c0,0.3,0,0.4,0.1,0.6c0.1,0.3,0.1,0.4,0.2,0.7l0.1,1.2
		c0.1,0.3,0.2,0.7,0.4,1.2l0.1,0.9c0.1,0.3,0.1,0.4,0.1,0.7c-0.4,0.3-0.6,0.3-1,0.6c-0.1,0-0.2,0.3-0.2,0.3H110
		c-0.2,0.1-0.6,0.4-1,0.6c-0.1-0.1-0.4-0.3-0.5-0.4c-0.1-0.1,0-0.3-0.1-0.4c-0.1-0.3-0.2-0.4-0.4-0.6c-0.1-0.1,0-0.3-0.1-0.3
		c-0.1,0.3-0.4,0.7-0.5,1.1c0,0.1,0,0.3-0.1,0.4c0,0.1-0.1,0.1-0.2,0.3c-0.1,0.3-0.2,0.7-0.5,0.9c-0.1,0.1-0.2,0.1-0.5,0.3
		c-0.1,0.1-0.2,0.3-0.5,0.4l-0.7,0.1c-0.1,0.1-0.2,0.3-0.5,0.3c0-0.1-0.7-0.1-0.7,0.1l0,0c0.1,0.1,0.2-0.1,0.4,0
		c0.4,0.1,1.6,0,1.7,0.6c0.1,0.1,0.1,0.3,0.1,0.6c-0.1,0.1-0.4,0.4-0.5,0.7c-0.1,0.1-0.1,0.3-0.1,0.4c-0.1,0.3-0.4,0.3-0.5,0.6
		c-0.2,0.6-0.5,1.1-0.7,1.5c-0.1,0.1-0.4,0.6-0.5,0.7s-0.1,0.1-0.2,0.3c0,0.1,0,0.1-0.1,0.3c-0.1,0.1-0.2,0.3-0.5,0.6
		c-0.1,0.3-0.1,0.4-0.2,0.7c-0.2,0.3-0.5,0.4-0.7,0.7c-0.2,0.3-0.1,0.7-0.6,0.7c0,0,0,0-0.1,0v-0.1c-0.1-0.3,0.1-0.4,0.1-0.7
		c0-0.1,0-0.3,0-0.4c0-0.1,0.1-0.4,0.1-0.6c0,0,0.1-0.1,0.1-0.3v-0.4c0-0.1,0.1-0.3,0.2-0.4c0-0.1,0-0.3,0.1-0.6
		c0.1-0.3,0.1-0.6,0.2-0.7c0-0.3,0-0.6,0-0.7c0-0.1,0.1-0.1,0.1-0.3v-0.3c0-0.1,0.2-0.3,0.2-0.6c0.1-0.3,0-0.6,0.1-0.7
		c0.1-0.1,0.1-0.4,0.2-0.6c0-0.3,0-0.4,0-0.7c0-0.1,0.1-0.4,0.2-0.6v-0.4c0-0.1,0.1-0.3,0.2-0.6s0.1-0.9,0.1-1.2
		c0.1,0,0.1,0,0.1-0.1c0.1-0.3,0.1-0.9,0.2-1.4c0-0.1,0.1-0.3,0.1-0.4s0-0.3,0-0.6c0-0.1,0.1-0.3,0.2-0.6c0-0.3,0-0.4,0-0.7
		c0-0.1,0.1-0.3,0.2-0.4v-0.3c0.1-0.3,0.1-0.7,0.2-1.1c0-0.3,0-0.4,0-0.6c0-0.1,0.1-0.3,0.2-0.4c0.1-0.3,0-0.6,0-0.7
		c0.1-0.4,0.1-0.6,0.2-0.6c0.1-0.1,0-0.4,0.1-0.7c0-0.3,0.1-0.4,0.1-0.7c0-0.1,0.1-0.4,0.1-0.7c-0.1-0.3-0.4-0.4-0.4-1.1l0.1-0.1
		c0.6,0,1.1,0,1.7,0c0.2,0,0.6,0,0.7-0.1C108.1,3.4,108.2,3.4,108.2,3.6L108.2,3.6z"/>
	<path class="st0" d="M121,5.5c0,0.6,0,1.2,0,1.8c0,0.1,0.1,0.1,0.1,0.3c0,0.1,0,0.4,0,0.7c0,0-0.1,0.1-0.1,0.3
		c0,0.3,0.1,0.7,0.1,1.1c-0.1,0.3,0,1.2,0,1.8c0,0.3-0.1,0.7-0.1,0.9c0,0.1,0,0.3,0.1,0.4c0,0.1,0,0.3-0.1,0.3c-0.1,0.4,0,1.4,0,1.8
		c0,0.1,0,0.3,0,0.3v0.1c0,0.3,0,0.4,0.1,0.7c0,0.3-0.1,0.4-0.1,0.6c0,0.2,0.1,0.3,0.1,0.4s0,0.3-0.1,0.3c-0.1,0.3,0,0.7,0.1,1.1
		c0.1,0.3-0.1,0.3-0.1,0.4c-0.1,0.4,0.1,0.9,0.1,1.4c0,0.3-0.1,0.9-0.1,1.2c0,0.1,0.1,0.9,0.1,1.1c0,0-0.1,0.1-0.1,0.3
		c0,0.1,0,0.4,0.1,0.6c0,0.1,0,0.3-0.1,0.3c0,0.1,0,0.3,0,0.6l-0.1,0.1c0,0.1,0,0.1,0.1,0.3c0,0.3-0.1,0.3-0.1,0.7
		c0,0.3,0.1,0.7,0.1,1.2c-0.1,0.6,0,1.1,0,1.7c0,0.3-0.1,0.4-0.1,0.6c0,0.3,0,0.7,0.1,0.9c0.2,0.1,0.4,0.4,0.5,0.7
		c0,0.3,0,0.3-0.1,0.4c0,0-0.9,0.1-1,0.1c-0.1,0-0.2-0.1-0.4-0.1c-0.1,0-0.2,0.1-0.5,0.1c-0.1,0-0.1-0.1-0.2-0.1
		c-0.2,0-0.5,0.3-0.7,0.1c0,0-0.1-0.1-0.2-0.1c-0.1,0-0.2,0-0.4,0.1c-0.2,0.1-1,0-1.2,0c0,0,0,0,0-0.1c0-0.1,0-0.3,0-0.4
		c0.1-0.3,0.4-0.4,0.5-0.7c0.1-0.4-0.1-0.9,0-1.5c0-0.3,0.1-0.6,0.1-0.9c0-0.1-0.1-0.3-0.1-0.3c0-0.3,0-0.7,0-1.1s0-0.6,0.1-0.9
		l-0.1-0.1l0.1-0.3l-0.1-0.3c0,0,0-0.4,0.1-0.4c0-0.1,0-0.1,0-0.3c0-0.3,0-0.6,0.1-0.7c0.1-0.1,0-0.3-0.1-0.3c0-0.1,0-0.3,0.1-0.4
		c0.1-0.3-0.1-0.4-0.1-0.6c0-0.1,0.1-0.3,0.1-0.3c0-0.3,0-0.4-0.1-0.6c0-0.1,0.1-0.3,0.1-0.4l-0.1-0.1c0-0.4,0-1.1,0-1.5
		c0-0.1,0-0.1-0.1-0.3l0.1-0.3c0.1-0.7-0.1-1.4-0.1-1.9c0-0.1,0.1-0.7,0.1-0.9c0-0.1-0.1-0.3-0.1-0.6l0.1-0.3c0-0.1-0.1-0.3-0.1-0.3
		c0-0.1,0-0.3,0-0.4c0-0.3,0-0.4,0-0.6l-0.1-0.1c0,0,0.1-0.1,0.1-0.3v-0.6c0-0.1,0-0.3-0.1-0.4c-0.1-0.3,0-0.9,0.1-1.2
		c0-0.3-0.1-0.3-0.1-0.6l0.1-0.7c0-0.3-0.1-0.9-0.1-1.4c0.1-0.6,0-1.4,0-1.7c-0.1-0.3,0.1-0.6,0-0.7c-0.1-0.3-0.6-0.7-0.5-1.2
		c0.1-0.3,0.7-0.3,1.1-0.3c0.2,0.1,0.6-0.1,0.9,0c0.1,0,0.4-0.1,0.6,0c0.1,0,0.1,0.1,0.2,0.1l0.1-0.1h0.9c0,0,0.1,0.1,0.2,0.1
		c0.2,0,0.6-0.3,0.7,0c0.2,0.1,0.2,0.1,0.2,0.4c-0.1,0.1-0.2,0.4-0.5,0.4C121.1,4.9,121.1,5.2,121,5.5L121,5.5z"/>
	<path class="st0" d="M124.3,14.6c0-0.4,0-2.1,0-2.6c0-0.1,0.1-0.3,0.1-0.4s-0.1-0.3-0.1-0.3c-0.1-0.3,0.1-1.2,0.1-1.8
		c-0.1-0.3,0-0.9,0-1.2c0-0.7,0-1.7,0-2.6c0-0.3,0.1-0.4,0-0.7c-0.2-0.1-0.6-0.4-0.6-1.1h0.1c0.1-0.1,0.4,0.1,0.5,0
		c0.1,0,0.4-0.1,0.5-0.1h0.7c0,0,0.1,0,0.2,0c0.1,0,0.5,0.1,0.6,0.1l0.1-0.1c0.2,0,0.4,0.1,0.5,0.1c0.2-0.1,0.2-0.1,0.6-0.1
		c0,0,0.1,0.1,0.2,0.1c0.2,0,0.6-0.3,0.7,0c0.1,0,0.1,0.1,0.1,0.4c-0.1,0.1-0.2,0.4-0.5,0.4c0,0.3-0.1,0.4-0.1,0.7
		c0,0.6,0,1.2,0,1.8c0,0.1,0.1,0.1,0.1,0.3c0,0.1,0,0.4,0,0.7l0.1,1.1c0,0.7-0.2,0.6-0.1,0.9c0,0.1,0.1,0.3,0.1,0.4
		c0.1,0.3-0.1,1.5-0.1,1.8c0,0.3,0.1,0.4,0.1,0.7c0,0.3-0.1,0.7-0.1,1.2c0,0,0.1,0.1,0.1,0.3c0,0.3-0.1,0.4-0.1,0.7
		c0,0.1,0,0.3,0,0.3V16c0,0.3,0,0.4,0.1,0.7c0,0.3-0.1,0.4-0.1,0.6c0,0.1,0.1,0.3,0.1,0.4s0,0.3-0.1,0.3c-0.1,0.3,0,0.7,0.1,1.1
		c0.1,0.3-0.1,0.3-0.1,0.4c-0.1,0.4,0.1,0.9,0.1,1.4c0,0.3-0.1,0.9-0.1,1.2c0,0.1,0.1,0.9,0.1,1.1c0,0-0.1,0.1-0.1,0.3
		c0,0.1,0,0.4,0.1,0.6c0,0.1,0,0.3-0.1,0.3c0,0.1-0.2,1.8,0,1.9c0.1,0,0.1,0,0.1,0.1c0.2-0.3,0.6,0,0.9,0c0.1,0,0.1-0.1,0.2-0.1
		c0.1,0,0.2,0.1,0.5,0.1c0.5-0.1,1.2,0,1.7,0.1v-0.1c0.2,0,0.5,0,0.7,0c0.1,0,0.1,0,0.2,0c0.1,0,0.2,0.1,0.5,0
		c0.2,0,0.4,0.1,0.5,0.1c0,0,0.2-0.1,0.2-0.3c0-0.1,0-0.1,0-0.3l0.2-0.3h0.2c0.2,0.4,0.2,1.5,0.1,2.2c0,0.1,0,0.3,0.1,0.4
		c0.1,0.4,0,1.4,0,1.7c-0.1,0.4,0.1,1.1,0,1.2c-0.1,0.3-0.4,0.3-0.6,0.3c-0.1-0.1-0.6,0-0.7,0h-1.2h-0.7c-0.2,0-0.4,0-0.6,0h-0.1
		c-0.1,0-0.2,0-0.4,0h-0.9h-0.5c-0.1,0-0.2-0.1-0.4-0.1c-0.2,0-0.2,0.1-0.4,0.1c-0.1,0-0.5-0.3-0.6-0.1c-0.1,0-0.4,0.3-0.5,0.3
		c-0.4-0.1-1-0.3-1.4-0.1h-0.2c-0.2,0-0.6,0-0.7,0.1c-0.1,0-0.5-0.1-0.7-0.1c0-0.1,0-0.1-0.1-0.3c0.1-0.3,0.5-0.9,0.6-1.2
		c0-0.1-0.1-0.6-0.1-0.7c-0.1-0.3,0-0.6,0.1-0.7c0-0.3,0-0.7-0.1-1.1l0.1-0.3c0.1-0.6-0.2-0.9-0.1-1.4c0.1-0.3,0.2-0.6,0.1-0.9
		c0-0.1-0.1-0.1-0.1-0.3c0-0.1,0.1-0.3,0.1-0.6c0-0.3-0.5-0.7-0.5-1.1c0-0.1,0.1-0.3,0.1-0.6c-0.1-0.4,0-1.4,0.1-1.8
		c0.1-0.4-0.2-0.9-0.1-1.4l0.1-0.3c0.1-0.3-0.1-1.1-0.1-1.5c0.1-0.3,0.1-0.7,0.1-1.1c0-0.3,0-0.7-0.1-1.1
		C124.2,15.2,124.3,14.7,124.3,14.6L124.3,14.6z"/>
	<path class="st0" d="M141.1,20.4c0,0.1-0.1,0.1-0.1,0.3s0.1,0.4,0.1,0.9c-0.1,0.4-0.1,0.9-0.1,1.2c0,0.3,0,0.4,0,0.7
		c0,0.4,0,1.1,0,1.5c0,0.3,0,0.4,0,0.7c0,0.7,0,1.5,0.1,1.9c0.1,0.3-0.1,0.6-0.1,0.7c0,0.1,0.1,0.3,0.1,0.4c0,0.3-0.1,0.6,0,0.9
		c0.2,0.1,0.5,0.4,0.5,0.9c-0.5,0.7-0.6,0.1-1.1,0.3c-0.1,0-0.2,0.1-0.4,0.1h-0.6c-0.1,0-0.4,0.1-0.5,0c-0.2,0-0.4-0.1-0.6-0.1h-0.1
		c-0.1,0-0.2,0.1-0.4,0.1c-0.2,0-0.2,0-0.4-0.1h-0.5c-0.1,0-0.4-0.1-0.5-0.1c0-0.1,0-0.1-0.1-0.3l0.5-0.9c0.1-0.3,0-0.9,0-1.2
		s0-0.4,0.1-0.6c0-0.1,0-0.3,0-0.4c0-0.4,0.1-0.9,0.1-1.5c0-0.3-0.1-0.6-0.1-1.1c0.1-0.7,0.1-1.8,0-2.6c-0.1-0.3,0.1-0.6,0.1-1.1
		c-0.1-0.4-0.1-1.5,0-1.9c0-0.3-0.1-0.4-0.1-0.7c0-0.4,0.1-0.9,0.1-1.4c0-0.3,0-0.4,0-0.6c0-0.1,0.1-0.4,0-0.7c-0.1-0.3,0-1.1,0-1.5
		c0.1-0.3-0.1-0.7-0.1-1.2c0.1-0.4,0-0.9,0-1.4c0-0.6,0-1.2,0-1.8c0-0.1,0.1-0.3,0.1-0.3c0-0.1,0-0.4-0.1-0.4c0-0.4,0-0.7,0-1.2
		c0-0.6,0-1.5,0-2.1c0-0.3,0.1-0.9,0-1.1c-0.1-0.3-0.5-0.4-0.6-1.1c0.1-0.1,0.2-0.3,0.5-0.3c0.2-0.1,0.6,0.1,0.7,0.1
		c0.2,0,0.7-0.1,1,0c0.3,0.1,0.5-0.1,0.7-0.1c0.2,0.1,0.9,0.1,1.2,0.1c0.1,0,0.4,0,0.5,0s0.4,0,0.5,0h0.6l0.2,0.1
		c0.4-0.1,0.7-0.1,1.2-0.1h0.5c0.4-0.1,0.9-0.1,1.4,0c0.2,0,0.4-0.1,0.5-0.1l0.1,0.1c0.1,0,0.2-0.1,0.2-0.1h0.7
		c0,0.3,0.1,0.6,0.1,0.7c0,0.3,0,1.1-0.1,1.2c0,0.3,0,0.4,0,0.7c0,0.6-0.1,1.4,0,1.9c0.1,0.4-0.1,1.2-0.2,1.4c0,0,0,0-0.1,0
		c-0.1-0.1-0.5-0.7-0.6-0.7h-1.5c-0.2,0-0.5,0.1-0.7,0c-0.1,0-0.1-0.1-0.2-0.1s-0.4,0.1-0.6,0.1c-0.6-0.1-1.4,0.1-2,0
		c-0.1,0-0.4-0.1-0.5-0.1v0.1c-0.1,0.3,0,0.9,0,1.4v2.7c0,0.4,0,0.7,0,1.1c0.1,0.1,0.2,0.1,0.5,0.1c0.2-0.3,0.9,0.1,1.1,0
		c0.4-0.1,0.9,0,1.4,0h0.2c0.4-0.1,1-0.1,1.5,0c0.1,0,0.2-0.1,0.4-0.1l0.5,0.1v0.5c0.2,0.4,0,1.1,0.1,1.7c0.1,0.6-0.1,1.4,0,2.1
		c0.1,0.6,0,1.4,0,2.1h-0.1c-0.1,0.1-0.1,0.1-0.4,0.1c-0.1-0.1-0.1-0.1-0.2-0.1c-0.1-0.1-0.1-0.4-0.4-0.4c-0.2,0.3-0.7,0-1,0
		c-0.3,0-0.9,0.1-1.2,0h-0.7h-1.6C141.1,19.9,141.1,20.1,141.1,20.4L141.1,20.4z"/>
	<path class="st0" d="M157.9,25.8c0.1,0,0.1,0,0.2,0s0.2,0.1,0.5,0c0.2,0,0.4,0.1,0.5,0.1c0,0,0.2-0.1,0.2-0.3c0-0.1,0-0.1,0-0.3
		l0.2-0.3h0.2c0.2,0.4,0.2,1.5,0.1,2.2c0,0.1,0,0.3,0.1,0.4c0.1,0.4,0,1.4,0,1.7c-0.1,0.4,0.1,1.1,0,1.2c-0.1,0.3-0.4,0.3-0.6,0.3
		c-0.1-0.1-0.6,0-0.7,0h-1.2h-0.7c-0.2,0-0.4,0-0.6,0H156c-0.1,0-0.2,0-0.4,0h-0.9h-0.5c-0.1,0-0.2-0.1-0.4-0.1
		c-0.2,0-0.2,0.1-0.4,0.1s-0.5-0.3-0.6-0.1c-0.1,0-0.4,0.3-0.5,0.3c-0.4-0.1-1-0.3-1.4-0.1h-0.2c-0.2,0-0.6,0-0.7,0.1
		c-0.1,0-0.5-0.1-0.7-0.1c0-0.1,0-0.1-0.1-0.3c0.1-0.3,0.5-0.9,0.6-1.2c0-0.1-0.1-0.6-0.1-0.7c-0.1-0.3,0-0.6,0.1-0.7
		c0-0.3,0-0.7-0.1-1.1l0.1-0.3c0.1-0.6-0.2-0.9-0.1-1.4c0.1-0.3,0.2-0.6,0.1-0.9c0-0.1-0.1-0.1-0.1-0.3c0-0.1,0.1-0.3,0.1-0.6
		c0-0.3-0.1-0.4-0.1-0.6s0.1-0.3,0.1-0.6c-0.1-0.4,0-1.4,0.1-1.8c0.1-0.4-0.2-0.9-0.1-1.4l0.1-0.3c0.1-0.3-0.1-1.1-0.1-1.5
		c0.1-0.3,0.1-0.7,0.1-1.1c0-0.3,0-0.7-0.1-1.1c0-0.1,0.1-0.6,0.1-0.7c0-0.3-0.1-0.4-0.1-0.6c0-0.3,0-0.6,0.1-0.7c0-0.4,0-0.9,0-1.5
		c0-0.1,0.1-0.3,0.1-0.4s-0.1-0.3-0.1-0.3c-0.1-0.3,0.1-1.2,0.1-1.8c-0.1-0.3,0-0.9,0-1.2c0-0.7,0-1.7,0-2.6c0-0.3,0.1-0.4,0-0.7
		c-0.2-0.1-0.6-0.4-0.6-1.1h0.1c0.1-0.1,0.4,0.1,0.5,0c0.1,0,0.4-0.1,0.5-0.1h0.7c0,0,0.1,0,0.2,0c0.1,0,0.5,0.1,0.6,0.1l0.1-0.1
		c0.2,0,0.4,0.1,0.5,0.1c0.2-0.1,0.6-0.1,1-0.1c0.5,0,1,0.1,1.4,0.1h0.5l0.1-0.1c0.1,0,0.6,0.3,0.9,0.3c0.1,0,0.4-0.1,0.5-0.1h0.1
		h0.2c0.4-0.1,0.9,0.1,1.2,0c0.4-0.1,1.1,0,1.5,0c0.1,0.3,0,0.7,0,1.1c0.1,0.3-0.1,1.2,0,1.7c0,0.1,0.1,0.9,0.1,1.1
		c0,0-0.1,0.1-0.1,0.3c0,0.1,0,0.3,0,0.3c0,0.4,0,0.9,0,1.4c-0.1,0.1-0.1,0.1-0.2,0.3c-0.4,0-0.2-0.3-0.5-0.6l-0.2-0.3
		c-0.2,0-0.6,0.1-0.7,0l-0.1-0.1c-0.1,0-0.2,0.3-0.5,0.1c-0.5-0.1-1.5-0.3-2-0.1c-0.2,0.1-0.4-0.1-0.5-0.1c-0.5,0-1.2,0-1.6,0
		c0,0,0,0.1,0,0.3c0.1,0.3-0.1,0.6,0,1.1c0,0.1,0.1,0.3,0.1,0.4c0.1,0.3-0.1,1.5-0.1,1.8c0,0.3,0.1,0.4,0.1,0.7
		c0,0.3-0.1,0.7-0.1,1.2c0,0,0.1,0.1,0.1,0.3c0,0.3-0.1,0.4-0.1,0.7c0.1,0.7-0.1,1.5-0.1,2.5c0.1,0,0.1,0.1,0.2,0.1
		c0.1-0.3,0.4-0.3,0.6-0.4c0.1-0.1,0.2-0.3,0.2-0.4c0.1-0.1,0.4-0.1,0.5-0.3c0.1,0,0.1-0.1,0.1-0.3c0.2-0.1,0.5-0.1,0.6-0.3l0.1-0.3
		h0.1c0.4-0.1,0.6-0.6,0.9-0.7c0.2-0.1,0.5-0.3,0.7-0.4c0.1-0.1,0.1-0.3,0.2-0.3c0.1-0.1,0.4,0,0.5-0.1c0.2-0.1,0.1-0.3,0.5-0.3
		c0.1,0.1,0.1,0.3,0.1,0.7c0.1,0.1,0,0.4,0,0.7c0,0.3,0.1,0.6,0.1,1.1c0,0.6-0.1,1.4-0.1,1.8c0.1,0.6,0.1,1.7,0,2.2
		c-0.1,0-0.2,0-0.4,0c0,0,0,0-0.1,0c-0.1-0.1-0.1-0.4-0.2-0.6c-0.1,0-0.2,0-0.2,0c-0.2,0.1-0.5,0.4-0.7,0.7c-0.1,0-0.1,0-0.2,0.1
		c-0.2,0.1-0.6,0.4-0.9,0.6c-0.2,0.1-0.4,0.4-0.5,0.7l-0.5,0.1c-0.4,0.1-0.6,0.6-1,0.9c-0.2,0.1-0.5,0.1-0.6,0.3
		c-0.1,0.2-0.1,0.3-0.2,0.4c0,0.7,0,1.5,0.1,2.2c0,0.1-0.1,0.3-0.1,0.6c0.1,0,0.1,0,0.1,0.1c0.2-0.3,0.6,0,0.9,0
		c0.1,0,0.1-0.1,0.2-0.1s0.2,0.1,0.5,0.1c0.5-0.1,1.2,0,1.7,0.1v-0.1C157.4,25.8,157.6,25.8,157.9,25.8L157.9,25.8z"/>
	<path class="st0" d="M166.7,30.3c0.1,0.1,0.1,0.3,0.1,0.6c-0.1,0-0.1,0.1-0.2,0.3c-0.2,0-0.5-0.3-0.7-0.1c-0.1,0-0.6,0.1-0.9,0.1
		c-0.1,0-0.4-0.1-0.5-0.1l-0.1,0.1c-0.1,0.1-0.5-0.1-0.6-0.1l-0.5,0.1c-0.2,0-0.9-0.1-0.9-0.1c-0.1,0-0.1,0.1-0.4,0.3
		c-0.1-0.1-0.2-0.1-0.2-0.6c0.1-0.1,0.5-0.6,0.6-0.7c0.1-0.3,0-0.4,0.1-0.7c0.1-0.4,0.2-0.9,0.2-1.4c0.1-0.3,0-0.4,0.1-0.7
		c0.1-0.1,0.2-0.3,0.5-0.4c0.1-0.1,0.2-0.4,0.4-0.6c0.2-0.2,0.2-0.1,0.4-0.3l0.4-0.6c0.4-0.4,0.7-0.7,1.1-1.2
		c0.1-0.1,0.2-0.4,0.4-0.6c0.1,0,0.1-0.1,0.2-0.1c0.1-0.1,0.1-0.3,0.2-0.4c0.9-0.9,1.5-1.8,2.4-2.7c0.5-0.4,0.7-1.1,1.4-1.2
		c0.1,0,0.4,0,0.5,0c0.2,0.1,0.5,0,0.7,0.1c0.2,0.1,0.5,0.6,0.9,0.6l0,0c-0.1-0.1-0.4-0.4-0.5-0.7c0-0.1,0-0.3-0.1-0.3
		c-0.2-0.4-0.5-0.6-0.5-1.5c0.2-0.3,0.4-0.7,0.5-1.2c0.1-0.1,0.2-0.1,0.2-0.3c0.2-0.3,0.5-0.6,0.7-0.7c0.2-0.3,0.4-0.7,0.7-0.7
		c0.1,0.3,0.2,0.7,0.2,1.1c0,0.1,0,0.3,0,0.6c0,0.1,0.1,0.4,0.1,0.6c0,0.3,0,0.4,0,0.6c0,0.1,0.1,0.1,0.1,0.3s0,0.3,0,0.3
		s0.1,0.1,0.1,0.3c0,0.2,0,0.3,0,0.6c0.1,0.3,0.1,0.6,0.2,0.9V20l0.1,0.1c0,0.1,0,0.3,0,0.4c0.1,0.3,0.2,0.4,0.2,0.7
		c0,0.1,0,0.4,0,0.6c0,0.1,0.1,0.3,0.1,0.4c0.1,0.3,0,0.4,0.1,0.7c0,0.1,0.1,0.1,0.1,0.3c0.1,0.4,0.1,0.9,0.2,1.4l0.2,0.7
		c0,0.3,0.1,0.4,0.1,0.7c0,0.1,0.1,0.3,0.1,0.4c0.1,0.3,0,0.6,0.1,1.1c0,0.1,0.1,0.3,0.1,0.4v0.4c0,0.3,0.1,0.4,0.1,0.7
		c0,0.3-0.1,0.3,0,0.4c0.1,0.4,0.6,0.6,0.7,1.1c-0.1,0.1,0,0.3-0.1,0.3l-1,0.1c-0.1,0-0.2-0.1-0.4-0.1c-0.2,0-0.6,0.1-0.7,0
		c-0.1,0-0.2-0.1-0.4-0.1s-0.5,0.3-0.7,0.1c-0.1,0-0.5-0.1-0.6-0.1c-0.2,0.1-0.6,0.1-0.9,0.1c-0.1-0.3-0.1-0.3-0.1-0.7
		c0.1-0.1,0.6-0.4,0.6-0.7l-0.1-0.1c-0.1-0.1-0.1-0.4-0.1-0.7c-0.1-0.3,0-0.3-0.1-0.6c0-0.1-0.1-0.3-0.1-0.3c0-0.1,0-0.3,0-0.4
		c-0.1-0.3-0.1-0.7-0.2-1.1c-0.1-0.3,0-0.7-0.1-1.1c0-0.1-0.1-0.3-0.2-0.6c-0.1-0.3,0-0.4-0.1-0.6c-0.1-0.1-0.1-0.1-0.2-0.1
		c-0.2,0.6-0.6,0.9-1,1.2c-0.1,0.1-0.1,0.3-0.1,0.3l-0.2,0.1c-0.1,0.1-0.1,0.3-0.1,0.3c-0.1,0.1-0.2,0.1-0.5,0.3l-0.4,0.6
		c-0.1,0-0.1,0-0.1,0.1c-0.1,0.1-0.1,0.3-0.1,0.4c-0.1,0.1-0.4,0.1-0.5,0.3c-0.2,0.1-0.4,0.6-0.5,0.7c-0.1,0.1-0.4,0.1-0.5,0.3
		c-0.1,0.1-0.2,0.3-0.4,0.4c-0.2,0.1-0.4,0.1-0.4,0.3c0.1,0.1,0.1,0.3,0.1,0.4C166.6,30.2,166.6,30.3,166.7,30.3L166.7,30.3z
		 M169.8,3.6c0.1,0,0.4,0,0.5-0.1c0.1,0,0.1,0,0.2,0.1c0.1,0,0.2,0,0.2-0.1c0.1,0,0.2,0,0.2,0.1c0.2,0.1,0.6-0.1,0.7,0
		c0.1,0,0.2,0.1,0.2,0.3c0.1,0.3-0.2,0.9-0.4,1.4c0.2,0.1,0.1,0.3,0.1,0.7c0,0.3,0.1,0.4,0.2,0.6c0.1,0.1-0.1,0.4,0,0.6
		c0.1,0.3,0.2,0.4,0.2,0.7c0,0.1,0,0.1,0,0.3s0.1,0.1,0.1,0.3c0,0.3,0,0.4,0.1,0.6c0.1,0.3,0.1,0.4,0.2,0.7l0.1,1.2
		c0.1,0.3,0.2,0.7,0.4,1.2l0.1,0.9c0.1,0.3,0.1,0.4,0.1,0.7c-0.4,0.3-0.6,0.3-1,0.6c-0.1,0-0.2,0.3-0.2,0.3h-0.4
		c-0.2,0.1-0.6,0.4-1,0.6c-0.1-0.1-0.4-0.3-0.5-0.4c-0.1-0.1,0-0.3-0.1-0.4c-0.1-0.3-0.2-0.4-0.4-0.6c-0.2-0.2,0-0.3-0.1-0.3
		c-0.1,0.3-0.4,0.7-0.5,1.1c-0.1,0.1,0,0.3-0.1,0.4s-0.1,0.1-0.2,0.3c-0.1,0.3-0.2,0.7-0.5,0.9c-0.1,0.1-0.2,0.1-0.5,0.3
		c-0.1,0.1-0.2,0.3-0.5,0.4l-0.7,0.1c-0.1,0.1-0.2,0.3-0.5,0.3c-0.2,0.1-0.9,0.1-1,0.4h0.1c0.1,0.1,0.2-0.1,0.4,0
		c0.4,0.1,1.6,0,1.7,0.6c0.1,0.1,0.1,0.3,0.1,0.6c-0.1,0.1-0.4,0.4-0.5,0.7c-0.1,0.1-0.1,0.3-0.1,0.4c-0.1,0.3-0.4,0.3-0.5,0.6
		c-0.2,0.6-0.5,1.1-0.7,1.5c-0.1,0.1-0.4,0.6-0.5,0.7c-0.1,0.1-0.1,0.1-0.2,0.3c0,0.1,0,0.1-0.1,0.3c-0.1,0.1-0.2,0.3-0.5,0.6
		c-0.1,0.3-0.1,0.4-0.2,0.7c-0.2,0.3-0.5,0.4-0.7,0.7c-0.2,0.3-0.1,0.7-0.6,0.7c0,0,0,0-0.1,0v-0.1c-0.1-0.3,0.1-0.4,0.1-0.7
		c0-0.1,0-0.3,0-0.4c0-0.1,0.1-0.4,0.1-0.6c0,0,0.1-0.1,0.1-0.3v-0.4c0-0.1,0.1-0.3,0.2-0.4c0-0.1,0-0.3,0.1-0.6s0.1-0.6,0.2-0.7
		c0-0.3,0-0.6,0-0.7c0-0.1,0.1-0.1,0.1-0.3v-0.3c0-0.1,0.2-0.3,0.2-0.6c0.1-0.3,0-0.6,0.1-0.7c0.1-0.1,0.1-0.4,0.2-0.6
		c0-0.3,0-0.4,0-0.7c0-0.1,0.1-0.4,0.2-0.6v-0.4c0-0.1,0.1-0.3,0.2-0.6c0.1-0.3,0.1-0.9,0.1-1.2c0.1,0,0.1,0,0.1-0.1
		c0.1-0.3,0.1-0.9,0.2-1.4c0-0.1,0.1-0.3,0.1-0.4s0-0.3,0-0.6c0-0.1,0.1-0.3,0.2-0.6c0-0.3,0-0.4,0-0.7c0-0.1,0.1-0.3,0.2-0.4v-0.3
		c0.1-0.3,0.1-0.7,0.2-1.1c0-0.3,0-0.4,0-0.6s0.1-0.3,0.2-0.4c0.1-0.3,0-0.6,0-0.7c0-0.1,0.1-0.1,0.1-0.3c0.1-0.1,0-0.4,0.1-0.7
		c0-0.3,0.1-0.4,0.1-0.7c0-0.1,0.1-0.4,0.1-0.7c-0.1-0.3-0.4-0.4-0.4-1.1l0.1-0.1c0.6,0,1.1,0,1.7,0c0.2,0,0.6,0,0.7-0.1
		C169.7,3.3,169.8,3.4,169.8,3.6L169.8,3.6z"/>
	<path class="st0" d="M175.9,3.6c0.1,0,0.2,0,0.4-0.1l0.5,0.1c0.4,0,0.6-0.1,1-0.1c0.2,0.1,0.9,0.1,1.1,0c0.1,0,0.2,0.1,0.2,0.1
		s0.7-0.1,0.9-0.1c0.2,0,0.6,0,0.7,0.1h0.7c0.1,0,0.1,0.1,0.2,0.1c0.1,0,0.2-0.1,0.5-0.1c0.1,0,0.4,0.1,0.6,0.1l0.3-0.1
		c0.2-0.1,1.1,0.1,1.2,0.1l1.1-0.1l0.1,0.1c0.2,0.1,0.2-0.1,0.5-0.1c0,0,0.1,0.1,0.2,0.1s0.1,0,0.2-0.1c0.2-0.1,0.6,0,0.7,0.1
		l0.1,0.1c0,0.6,0,0.9-0.1,1.4c0,0.1,0,0.3,0.1,0.4l-0.1,0.1c0,0.1,0.1,1.2,0.1,1.5c0,0.3,0,0.7-0.1,0.9c0,0.3,0.1,0.7,0,1.1
		c-0.1,0.1-0.1,0.1-0.4,0.1l-0.2-0.3c-0.1-0.1-0.1-0.4-0.4-0.6c-0.4-0.3-0.7,0.1-1.1,0s-0.7,0-0.9,0c-0.5,0.1-1-0.1-1.4-0.1
		c-0.1,0.1-0.1,0.1-0.1,0.3c0.2,0.3,0,0.4,0.1,0.9c0,0.1,0,0.7-0.1,1.1c0,0.3,0.1,0.4,0.1,0.7c-0.1,0.4-0.1,1.2,0,1.8
		c0.1,0.4,0.1,1.2,0,1.8c0,0.4,0,0.9,0,1.4c0,0.3-0.1,0.7-0.1,1.1c0,0.1,0,0.3,0,0.3c0,0.3-0.1,0.9-0.1,1.2c0,0.1,0.1,0.3,0.1,0.3
		c0,0.1,0,0.3,0,0.4c0,0.1,0,0.3-0.1,0.3v0.9c0,0.3-0.1,0.6-0.1,0.9s0.1,1.2,0,1.5c0,0.1-0.1,0.3,0,0.3c0.1,0.3,0.1,0.9,0,1.2
		c-0.1,0.3,0,0.4,0.1,0.6c0,0.3-0.1,0.4-0.1,0.7c-0.1,0.3,0.1,0.7,0.1,1.1s-0.1,0.6,0,0.9l0.1,0.1c0,0.1-0.1,0.3-0.1,0.3
		c0,0.1,0.1,1.1,0.1,1.1c0.1,0.3,0.5,0.3,0.5,0.7c0.1,0.4-0.1,0.4-0.4,0.4c-0.2,0.3-0.6-0.1-1,0l-0.1,0.1c-0.1,0-0.2-0.1-0.2-0.1
		h-0.3c-0.2,0-0.6-0.1-0.9-0.1c-0.1,0-0.2,0.1-0.4,0.1c-0.1,0-0.4-0.1-0.5-0.1c-0.2,0.1-0.6,0.1-0.9,0.1c-0.1-0.1-0.2-0.3-0.2-0.6
		c0.1-0.1,0.1-0.3,0.2-0.4c0.1-0.1,0.2-0.1,0.2-0.3c0.1-0.3-0.1-0.9,0-1.4c0.1-0.3,0-1.1-0.1-1.5c-0.1-0.3,0.1-0.9,0.1-1.4
		c0-0.3,0-0.4-0.1-0.7c0.1-0.7,0.1-1.8,0-2.6c0-0.3,0.1-0.3,0.1-0.6l-0.1-0.1c0-0.1,0.1-0.7,0.1-0.9c0-0.1-0.1-0.3-0.1-0.4
		c0-0.4,0.1-0.6,0-1.1c0-0.4,0-1.1,0-1.5c0-0.1,0.1-0.3,0-0.4c0-0.1-0.1-0.3-0.1-0.3c0-0.1,0-0.3,0.1-0.4c0-0.3,0-0.7,0-1.1
		c0-0.1,0.1-0.3,0.1-0.6c0,0-0.1-0.1-0.1-0.3c-0.1-0.3,0-0.6,0.1-0.7c0.1-0.6-0.1-1.5,0-2.1s-0.1-0.9-0.1-1.5
		c0.1-0.4,0.1-0.9,0.1-1.4c-0.1,0-0.1-0.1-0.2-0.1c-0.5,0.4-0.7-0.1-1.2,0c-0.1,0-0.2,0.1-0.5,0.1c0,0-0.1-0.1-0.2-0.1
		c0,0-0.1,0.1-0.2,0.1c-0.1,0-0.9,0.1-0.9,0.1c-0.1,0-0.1-0.1-0.2-0.1c-0.2,0-0.5,0.6-0.6,0.7h-0.1c-0.1-0.1-0.2-0.1-0.2-0.3
		c-0.2-0.4,0.1-1.2,0.1-1.5c0-0.1-0.1-0.3-0.1-0.4c-0.1-0.3,0.1-1.2,0.1-1.4c0-0.1-0.1-0.3-0.1-0.4c0-0.3,0.1-0.4,0-0.7
		c-0.1-0.6,0.1-1.1,0.5-1.1c0.1,0.1,0.4-0.1,0.6,0l0.1,0.1l0.1-0.1C175.7,3.4,175.8,3.4,175.9,3.6L175.9,3.6z"/>
	<path class="st0" d="M202.9,5.5c0,0.6,0,1.2,0,1.8c0,0.1,0.1,0.1,0.1,0.3c0,0.1,0,0.4,0,0.7c0,0-0.1,0.1-0.1,0.3
		c0,0.3,0.1,0.7,0.1,1.1c-0.1,0.3,0,1.2,0,1.8c0,0.3-0.1,0.7-0.1,0.9c0,0.1,0,0.3,0.1,0.4c0,0.1,0,0.3-0.1,0.3c-0.1,0.4,0,1.4,0,1.8
		c0,0.1,0,0.3,0,0.3v0.1c0,0.3,0,0.4,0.1,0.7c0,0.3-0.1,0.4-0.1,0.6c0,0.2,0.1,0.3,0.1,0.4s0,0.3-0.1,0.3c-0.1,0.3,0.1,0.7,0.1,1.1
		c0.1,0.3-0.1,0.3-0.1,0.4c-0.1,0.4,0.1,0.9,0.1,1.4c0,0.3-0.1,0.9-0.1,1.2c0,0.1,0.1,0.9,0.1,1.1c0,0-0.1,0.1-0.1,0.3
		c0,0.1,0.1,0.4,0.1,0.6s-0.1,0.3-0.1,0.3c0,0.1,0,0.3,0,0.6l-0.1,0.1c0,0.1,0.1,0.1,0.1,0.3c0,0.3-0.1,0.3-0.1,0.7
		c0.1,0.3,0.1,0.7,0.1,1.2c-0.1,0.6,0,1.1,0,1.7c0,0.3-0.1,0.4-0.1,0.6c0,0.3,0,0.7,0.1,0.9c0.2,0.1,0.4,0.4,0.5,0.7
		c0,0.3,0,0.3-0.1,0.4c0,0-0.9,0.1-1,0.1s-0.2-0.1-0.4-0.1c-0.2,0-0.2,0.1-0.5,0.1c-0.1,0-0.1-0.1-0.2-0.1c-0.2,0-0.5,0.3-0.7,0.1
		c0,0-0.1-0.1-0.2-0.1c-0.1,0-0.2,0-0.4,0.1c-0.2,0.1-1,0-1.2,0c0,0,0,0,0-0.1c-0.1-0.1-0.1-0.3,0-0.4c0.1-0.3,0.4-0.4,0.5-0.7
		c0.1-0.4-0.1-0.9,0-1.5c0-0.3,0.1-0.6,0.1-0.9c0-0.1-0.1-0.3-0.1-0.3c0-0.3,0-0.7,0-1.1s0-0.6,0.1-0.9l-0.1-0.1l0.1-0.3l-0.1-0.3
		c0,0,0-0.4,0.1-0.4c0-0.1,0-0.1,0-0.3c0-0.3,0-0.6,0.1-0.7c0.1-0.1,0-0.3-0.1-0.3c0-0.1,0-0.3,0.1-0.4c0.1-0.3-0.1-0.4-0.1-0.6
		c0-0.1,0.1-0.3,0.1-0.3c0-0.3,0-0.4-0.1-0.6c0-0.1,0.1-0.3,0.1-0.4l-0.1-0.1v-0.1c-0.1,0-0.1,0-0.1,0l-0.1,0.1l-0.2-0.1l-0.2,0.1
		c-0.1,0-0.2,0-0.4-0.1c-0.1,0-0.1,0-0.2,0c-0.2,0-0.4,0-0.5-0.1c-0.1,0-0.1,0-0.2,0.1c-0.1,0-0.2,0-0.2-0.1
		c-0.2-0.1-0.4,0.1-0.5,0.1s-0.1-0.1-0.2-0.1s-0.2,0-0.4,0.1c-0.1,0-0.2-0.1-0.4-0.1l-0.1,0.1c-0.4,0-0.7,0-1.1,0
		c-0.1,0-0.1,0-0.1,0.1c0,0.1,0.1,0.3,0,0.6c0,0.3-0.1,0.9-0.1,1.2c0,0.1,0.1,0.9,0.1,1.1c0,0-0.1,0.1-0.1,0.3
		c0,0.1,0.1,0.4,0.1,0.6c0,0.2-0.1,0.3-0.1,0.3c0,0.1,0,0.3,0,0.6l-0.1,0.1c0,0.1,0.1,0.1,0.1,0.3c0,0.3-0.1,0.3-0.1,0.7
		c0,0.3,0.1,0.7,0.1,1.2c-0.1,0.6,0,1.1,0,1.7c0,0.3-0.1,0.4-0.1,0.6c0,0.3,0,0.7,0.1,0.9c0.2,0.1,0.4,0.4,0.5,0.7
		c0,0.3,0,0.3-0.1,0.4c0,0-0.9,0.1-1,0.1s-0.2-0.1-0.4-0.1c-0.2,0-0.2,0.1-0.5,0.1c-0.1,0-0.1-0.1-0.2-0.1c-0.2,0-0.5,0.3-0.7,0.1
		c0,0-0.1-0.1-0.2-0.1c-0.1,0-0.2,0-0.4,0.1c-0.2,0.1-1,0-1.2,0c0,0,0,0,0-0.1c-0.1-0.1-0.1-0.3,0-0.4c0.1-0.3,0.4-0.4,0.5-0.7
		c0.1-0.4-0.1-0.9,0-1.5c0-0.3,0.1-0.6,0.1-0.9c0-0.1-0.1-0.3-0.1-0.3c0-0.3,0-0.7,0-1.1c0-0.3,0-0.6,0.1-0.9l-0.1-0.1l0.1-0.3
		l-0.1-0.3c0,0,0-0.4,0.1-0.4c0-0.1,0-0.1,0-0.3c0-0.3,0-0.6,0.1-0.7c0-0.1,0-0.3-0.1-0.3c0-0.1,0-0.3,0.1-0.4
		c0.1-0.3-0.1-0.4-0.1-0.6c0-0.1,0.1-0.3,0.1-0.3c0-0.3,0-0.4-0.1-0.6c0-0.1,0.1-0.3,0.1-0.4l-0.1-0.1c0-0.4,0-1.1,0-1.5
		c0-0.1,0-0.1-0.1-0.3l0.1-0.3c0.1-0.7-0.1-1.4-0.1-1.9c0-0.1,0.1-0.7,0.1-0.9s-0.1-0.3-0.1-0.6l0.1-0.3c0-0.1-0.1-0.3-0.1-0.3
		c0-0.1,0-0.3,0-0.4v-0.6l-0.1-0.1c0,0,0.1-0.1,0.1-0.3V13c0-0.1,0-0.3-0.1-0.4c-0.1-0.3,0-0.9,0.1-1.2c0-0.3-0.1-0.3-0.1-0.6
		l0.1-0.7c0-0.3-0.1-0.9-0.1-1.4c0.1-0.6,0-1.4,0-1.7c-0.1-0.3,0.1-0.6,0-0.7c-0.1-0.3-0.6-0.7-0.5-1.2c0.1-0.3,0.7-0.3,1.1-0.3
		c0.2,0.1,0.6-0.1,0.9,0c0.1,0,0.4-0.1,0.6,0c0.1,0,0.1,0.1,0.2,0.1l0.1-0.1h0.9c0,0,0.1,0.1,0.2,0.1c0.2,0,0.6-0.3,0.7,0
		c0.1,0,0.1,0.1,0.1,0.4c-0.1,0.1-0.2,0.4-0.5,0.4c0,0.3-0.1,0.4-0.1,0.7c0,0.6,0,1.2,0,1.8c0,0.1,0.1,0.1,0.1,0.3
		c0,0.1,0,0.4,0,0.7c0,0-0.1,0.1-0.1,0.3c0,0.3,0.1,0.7,0.1,1.1c-0.1,0.3,0,1.2,0,1.8c0,0.3-0.1,0.7-0.1,0.9c0,0.1,0,0.3,0.1,0.4
		c0,0.1,0,0.3-0.1,0.3c0,0.3,0,0.7,0,1.2c0.2,0,0.4-0.1,0.5-0.1c0.1-0.1,0.2,0.1,0.4,0.1c0.4,0.1,0.6-0.1,1-0.1
		c0.2,0,0.6,0.1,0.9,0.1c0.1,0,0.7-0.1,0.7-0.1l0.1,0.1c0.1,0,0.2,0,0.4-0.1c0.1,0,0.1,0,0.2,0.1c0.1,0,0.2,0,0.4,0l0.1,0.1
		c0.1,0,0.1,0,0.1-0.1c0.1,0,0.2,0,0.4,0.1l0,0l0.1-0.3c0-0.1-0.1-0.3-0.1-0.3c0-0.1,0-0.3,0-0.4c0-0.3,0-0.4,0-0.6l-0.1-0.1
		c0,0,0.1-0.1,0.1-0.3v-0.4c0-0.1,0-0.3-0.1-0.4c-0.1-0.3,0-0.9,0.1-1.2c0-0.3-0.1-0.3-0.1-0.6l0.1-0.7c0-0.3-0.1-0.9-0.1-1.4
		c0.1-0.6,0-1.4,0-1.7c-0.1-0.3,0.1-0.6,0-0.7c-0.1-0.3-0.6-0.7-0.5-1.2c0.1-0.3,0.7-0.3,1.1-0.3c0.2,0.1,0.6-0.1,0.9,0
		c0.1,0,0.4-0.1,0.6,0c0.1,0,0.1,0.1,0.2,0.1l0.1-0.1h0.9c0,0,0.1,0.1,0.2,0.1c0.2,0,0.6-0.3,0.7,0c0.1,0,0.1,0.1,0.1,0.4
		c-0.1,0.1-0.2,0.4-0.5,0.4C203,5.1,202.9,5.4,202.9,5.5L202.9,5.5z"/>
	<path class="st0" d="M213.4,25.8c0.1,0,0.1,0,0.2,0c0.1,0,0.2,0.1,0.5,0c0.2,0,0.4,0.1,0.5,0.1c0,0,0.2-0.1,0.2-0.3
		c0-0.1,0-0.1,0-0.3l0.2-0.3h0.2c0.2,0.4,0.2,1.5,0.1,2.2c0,0.1,0,0.3,0.1,0.4c0.1,0.4,0,1.4,0,1.7c-0.1,0.4,0.1,1.1,0,1.2
		c-0.1,0.3-0.4,0.3-0.6,0.3c-0.1-0.1-0.6,0-0.7,0h-1.2h-0.7c-0.2,0-0.4,0-0.6,0c-0.1,0-0.1,0-0.1,0c-0.1,0-0.2,0-0.4,0h-0.9h-0.5
		c-0.1,0-0.2-0.1-0.4-0.1c-0.2,0-0.2,0.1-0.4,0.1c-0.1,0-0.5-0.3-0.6-0.1c-0.1,0-0.4,0.3-0.5,0.3c-0.4-0.1-1-0.3-1.4-0.1h-0.2
		c-0.2,0-0.6,0-0.7,0.1c-0.1,0-0.5-0.1-0.7-0.1c0-0.1-0.1-0.1-0.1-0.3c0.1-0.3,0.5-0.9,0.6-1.2c0-0.1-0.1-0.6-0.1-0.7
		c-0.1-0.3,0-0.6,0.1-0.7c0-0.3,0-0.7-0.1-1.1l0.1-0.3c0.1-0.6-0.2-0.9-0.1-1.4c0.1-0.3,0.2-0.6,0.1-0.9c0-0.1-0.1-0.1-0.1-0.3
		c0-0.1,0.1-0.3,0.1-0.6c0-0.3-0.1-0.4-0.1-0.6s0.1-0.3,0.1-0.6c-0.1-0.4,0-1.4,0.1-1.8c0.1-0.4-0.2-0.9-0.1-1.4l0.1-0.3
		c0.1-0.3-0.1-1.1-0.1-1.5c0.1-0.3,0.1-0.7,0.1-1.1c0-0.3,0-0.7-0.1-1.1c0-0.1,0.1-0.6,0.1-0.7c0-0.3-0.1-0.4-0.1-0.6
		c-0.1-0.3,0-0.6,0.1-0.7c0-0.4,0-0.9,0-1.5c0-0.1,0.1-0.3,0.1-0.4s-0.1-0.3-0.1-0.3c-0.1-0.3,0.1-1.2,0.1-1.8c-0.1-0.3,0-0.9,0-1.2
		c0-0.7,0-1.7,0-2.6c0-0.3,0.1-0.4,0-0.7c-0.2-0.1-0.6-0.4-0.6-1.1h0.1c0.1-0.1,0.4,0.1,0.5,0c0.1,0,0.4-0.1,0.5-0.1h0.7
		c0,0,0.1,0,0.2,0c0.1,0,0.5,0.1,0.6,0.1l0.1-0.1c0.2,0,0.4,0.1,0.5,0.1c0.2-0.1,0.6-0.1,1-0.1c0.5,0,1,0.1,1.4,0.1h0.5l0.1-0.1
		c0.1,0,0.6,0.3,0.9,0.3c0.1,0,0.4-0.1,0.5-0.1h0.1h0.2c0.4-0.1,0.9,0.1,1.2,0c0.4-0.1,1.1,0,1.5,0c0.1,0.3,0,0.7,0,1.1
		c0.1,0.3-0.1,1.2,0,1.7c0,0.1,0.1,0.9,0.1,1.1c0,0-0.1,0.1-0.1,0.3c0,0.1,0,0.3,0,0.3c0,0.4,0,0.9,0,1.4c-0.1,0.1-0.1,0.1-0.2,0.3
		c-0.4,0-0.2-0.3-0.5-0.6h-0.2c-0.2,0-0.6,0.1-0.7,0l-0.1-0.1c-0.1,0-0.2,0.3-0.5,0.1c-0.5-0.1-1.5-0.3-2-0.1
		c-0.2,0.1-0.4-0.1-0.5-0.1c-0.5,0-1.2,0-1.6,0c0,0,0,0.1,0,0.3c0.1,0.3-0.1,0.6,0,1.1c0,0.1,0.1,0.3,0.1,0.4
		c0.1,0.3-0.1,1.5-0.1,1.8c0,0.3,0.1,0.4,0.1,0.7c0,0.3-0.1,0.7-0.1,1.2c0,0,0.1,0.1,0.1,0.3c0,0.3-0.1,0.4-0.1,0.7
		c0.1,0.7-0.1,1.5-0.1,2.5c0.1,0,0.1,0.1,0.2,0.1c0.1-0.3,0.4-0.3,0.6-0.4c0.1-0.1,0.2-0.3,0.2-0.4c0.1-0.1,0.4-0.1,0.5-0.3
		c0.1,0,0.1-0.1,0.1-0.3c0.2-0.1,0.5-0.1,0.6-0.3l0.1-0.3h0.1c0.4-0.1,0.6-0.6,0.9-0.7c0.2-0.1,0.5-0.3,0.7-0.4
		c0.1-0.1,0.1-0.3,0.2-0.3c0.1-0.1,0.4,0,0.5-0.1c0.2-0.1,0.1-0.3,0.5-0.3c0.1,0.1,0.1,0.3,0.1,0.7c0.1,0.1,0,0.4,0,0.7
		c0,0.3,0.1,0.6,0.1,1.1c0,0.6-0.1,1.4-0.1,1.8c0.1,0.6,0.1,1.7,0,2.2c-0.1,0-0.2,0-0.4,0c0,0,0,0-0.1,0c-0.1-0.1-0.1-0.4-0.2-0.6
		c-0.1,0-0.2,0-0.2,0c-0.2,0.1-0.5,0.4-0.7,0.7c-0.1,0-0.1,0-0.2,0.1c-0.2,0.1-0.6,0.4-0.9,0.6c-0.2,0.1-0.4,0.4-0.5,0.7l-0.5,0.1
		c-0.4,0.1-0.6,0.6-1,0.9c-0.2,0.1-0.5,0.1-0.6,0.3c-0.1,0.1-0.1,0.3-0.2,0.4c0,0.7,0,1.5,0.1,2.2c0,0.1-0.1,0.3-0.1,0.6
		c0.1,0,0.1,0,0.1,0.1c0.2-0.3,0.6,0,0.9,0c0.1,0,0.1-0.1,0.2-0.1c0.1,0,0.2,0.1,0.5,0.1c0.6-0.1,1.2,0,1.7,0.1v-0.1
		C212.9,25.8,213.3,25.8,213.4,25.8L213.4,25.8z"/>
	<path class="st0" d="M220.8,3.6c0.1,0,0.5-0.1,0.6-0.3c0.1,0,0.7,0.1,0.9,0.1c0.5,0.1,0.9-0.1,1.4,0c0.4,0.1,0.9-0.1,1.2,0
		c0.4,0.1,0.7,0.4,1,0.7h0.4c0.2,0.1,0.4,0.3,0.5,0.4l0.1,0.1c0.1,0.1,0.2,0.6,0.4,0.7c0.1,0.1,0.2,0,0.4,0.1
		c0.1,0.1,0.1,0.3,0.1,0.3l0.1,0.1c0,0.1,0,0.1,0,0.3c0.1,0.3,0.4,0.4,0.5,0.7l0.1,0.7l0.2,0.3c0.1,0.3,0.1,0.7,0.1,1.2
		c0,0.1,0.1,0.3,0.2,0.6c0,0.3,0,0.4,0,0.7c0,0.1,0.1,0.6,0.1,0.7c-0.1,0.4-0.2,1.2-0.1,1.8c0,0.3-0.1,0.7-0.1,1.1v0.6
		c0,0-0.1,0.1-0.1,0.3v0.3c-0.1,0.3-0.1,0.6-0.1,0.9c-0.1,0.3-0.2,0.7-0.4,0.9c-0.1,0.3-0.1,0.4-0.1,0.6l-0.1,0.3c0,0.1,0,0.1,0,0.3
		c-0.1,0.3-0.4,0.4-0.5,0.6c-0.1,0.1-0.1,0.3-0.1,0.3c-0.2,0.3-0.9,1.2-1,1.5c0.1,0.1,0.1,0.4,0.1,0.6c0.2,0.4,0.4,1.1,0.6,1.5
		c0.1,0.3,0.2,0.7,0.2,1.1c0.1,0.1,0.2,0.1,0.2,0.3c0.2,0.6,0.4,1.2,0.6,1.8c0.1,0.3,0.2,0.4,0.4,0.7c0.2,0.6,0.2,1.2,0.5,1.7
		c0.1,0.1,0.2,0.3,0.2,0.4c0.1,0.1,0,0.3,0.1,0.4c0,0.1,0.1,0.3,0.2,0.4c0.1,0.1,0.2,0.1,0.4,0.3c0,0.1,0,0.3,0,0.3l-0.1,0.1
		c-0.2,0.3-0.7,0-1.1,0.1c-0.2,0.1-0.4,0.1-0.6,0c-0.1,0-0.4,0.1-0.5,0.1s-0.4-0.1-0.5-0.1c-0.7,0.1-1.6,0.1-2.2,0.1
		c-0.1-0.1-0.1-0.1-0.1-0.3c0.1-0.1,0.6-0.7,0.6-1.1c-0.4-0.3-0.2-0.7-0.5-1.2c-0.2-0.4-0.5-1.2-0.6-1.7c0-0.1,0-0.3-0.1-0.4
		c0-0.1-0.1-0.1-0.1-0.3c-0.1-0.1-0.1-0.3-0.1-0.6l-0.1-0.1l-0.1-0.6c-0.1-0.1-0.2-0.3-0.2-0.4c-0.1-0.3,0-0.4-0.1-0.6
		c-0.1,0-0.1-0.1-0.2-0.1c-0.2,0.6-1.4,0.7-1.4,1.4c0.2,0.4,0,1.2,0,1.8c0,0.3,0.1,0.4,0.1,0.7c0,0.1-0.1,0.3-0.1,0.6
		c0,0.1,0.1,0.9,0.1,1.1s-0.1,0.1-0.1,0.4c0.1,0.1,0.1,0.3,0.2,0.4c0.2,0.3,0.4,0,0.4,0.4c-0.1,0.1-0.1,0.3-0.1,0.3
		c-0.2,0.3-0.9-0.1-1.2,0c-0.2,0.1-0.6-0.1-0.7-0.1s-0.2,0.3-0.2,0.3l-0.7-0.1c-0.4,0-0.7-0.1-1.1,0c-0.1,0-0.2,0-0.4,0
		c-0.1,0-0.2,0-0.4,0c0-0.1-0.1-0.3,0-0.6s0.5-0.4,0.5-0.9c0.1-0.3-0.1-2.2-0.1-2.7c0-0.1,0-0.3,0.1-0.3c0-0.4,0-0.9,0-1.4
		c0-0.1,0.1-0.4,0.1-0.7c-0.1-0.7-0.1-2.1-0.1-2.7c0-0.3-0.1-0.3-0.1-0.7c0-0.1,0.1-0.6,0.1-0.9c0,0-0.1-0.1,0-0.3
		c0-0.3,0.1-0.4,0.1-0.7c0-0.3,0-0.6-0.1-0.7c-0.1-0.3,0.1-0.4,0.1-0.7c0-0.4,0-0.9,0-1.5c0-0.1,0-0.3,0-0.4s0-0.3,0-0.4
		c0-0.3,0.1-0.3,0.1-0.4c0-0.1-0.1-0.3-0.1-0.6c0.1-0.7,0.1-2.1,0-2.7c0-0.1,0.1-0.4,0.1-0.6c0-0.3-0.1-0.6-0.1-0.7
		c0-0.3,0-0.7,0.1-1.1c-0.1-0.6,0-1.4,0.1-2.1c0-0.1,0-0.3,0-0.4c0-0.7-0.1-1.2-0.1-1.9c-0.2-0.1-0.5-0.4-0.5-0.9
		c0.7-0.6,1.7,0,2.5-0.3C220.2,3.7,220.6,3.8,220.8,3.6C220.7,3.4,220.7,3.6,220.8,3.6L220.8,3.6z M221.7,9c0.2,0.3,0.1,1.2,0.1,1.5
		v0.7c0,0.1-0.1,0.3-0.1,0.4c0.1,0.4,0.1,0.9,0.1,1.5c0,0.3-0.1,0.4-0.1,0.7c0,0.3,0.2,0.7,0.1,1.1c0,0.1-0.1,0.3-0.1,0.3v1.4
		c0,0,0.1,0.1,0.1,0.3c0.1,0.3-0.1,0.6,0,0.7l0,0c0.1-0.3,0.4-0.3,0.6-0.4l0.4-0.6c0.1-0.1,0.2-0.1,0.5-0.3c0.1-0.1,0.1-0.4,0.2-0.6
		c0.1-0.1,0.2-0.1,0.4-0.3c0.1-0.1,0.2-0.6,0.4-0.7c0.1-0.3,0.5-0.4,0.5-0.7c0.1-0.1,0-0.3,0.1-0.4c0.1-0.3,0.2-0.4,0.2-0.7
		c0.1-0.4,0-1.1-0.1-1.4c0-0.1,0-0.3,0-0.3c0-0.1-0.1-0.4-0.2-0.6c-0.1-0.1,0-0.3-0.1-0.6l-0.4-0.4c0-0.1-0.1-0.1-0.1-0.3
		c-0.1-0.1-0.2,0-0.4-0.1c-0.1,0-0.1-0.3-0.2-0.3c-0.2-0.1-0.6-0.1-0.9-0.1C222.5,9,221.9,8.4,221.7,9L221.7,9z"/>
	<path class="st0" d="M231.1,25.5c0.2-0.1,0.4-0.6,0.6-0.7c0,0,0,0,0.1,0v-0.1c0.1,0,0.1,0,0.1,0c0.1-0.1,0.1-0.1,0.2-0.3
		c0.1-0.1,0.2-0.3,0.4-0.3c0.1-0.1,0.1-0.3,0.1-0.3c0.1-0.1,0.2-0.1,0.4-0.3l0.2-0.4c0.2-0.3,0.4-0.3,0.6-0.6
		c0.2-0.1,0.2-0.6,0.7-0.6c0,0.1,0.1,0.1,0.1,0.3c0,0.3,0,0.4,0,0.7c0,0.1-0.1,0.4-0.1,0.7c0.1,0.7,0.9,1.7,1.2,2.1
		c0.1,0.1,0.2,0.1,0.4,0.3c0.1,0,0.1,0.3,0.1,0.3h0.2c0.1,0,0.5,0.3,0.7,0.3c0.1,0,0.2-0.3,0.2-0.3l0.4,0.1l0.9-0.6
		c0.2-0.4,0.5-1.1,0.6-1.7c0-0.1,0-0.4,0-0.6c0-0.3,0-0.3,0.1-0.4c-0.2-0.3-0.4-0.9-0.7-1.2c-0.4-0.3-0.7-0.6-1.1-0.9
		c-0.1-0.1-0.2-0.3-0.4-0.4c-0.2-0.3-0.4,0-0.6-0.1c-0.4-0.1-0.6-0.4-1-0.7h-0.1c-0.1,0-0.1-0.1-0.2-0.3c-0.1-0.1-0.2-0.1-0.5-0.3
		c-0.1-0.1-0.4-0.3-0.5-0.4l-0.7-0.3c-0.1-0.1-0.1-0.3-0.2-0.3c-0.1-0.1-0.2-0.1-0.4-0.3c-0.1-0.1-0.1-0.3-0.1-0.3
		c-0.1-0.1-0.1-0.1-0.2-0.3l-0.4-0.6c-0.2-0.3-0.5-0.6-0.7-0.9c-0.2-0.4-0.4-1.1-0.6-1.5c-0.1-0.1-0.2-0.3-0.2-0.4
		c-0.1-0.3-0.2-1.9-0.1-2.6c0-0.1,0.1-0.3,0.1-0.4c-0.1-1.1,0.1-1.2,0.4-1.9c0.1-0.3,0.1-0.7,0.2-1.1l0.2-0.3
		c0.2-0.6,0.5-1.2,0.9-1.5c0.1-0.1,0.4-0.3,0.6-0.3l0.2-0.3c0.2-0.3,0.5-0.3,0.7-0.4c0.1,0,0.1-0.1,0.1-0.3h0.2
		c0.1,0,0.2-0.3,0.2-0.3h0.2c0.1,0,0.2-0.3,0.4-0.3c0.4-0.1,0.6,0.1,0.9,0c0.1,0,0.2-0.1,0.4-0.3h0.6l0.1-0.1c0.1,0,0.1,0.1,0.1,0.1
		h0.7c0.1,0,0.2,0.1,0.4,0.1c0.2,0.1,0.5,0,0.7,0c0.1,0.1,0.2,0.3,0.4,0.3c0.2,0.1,0.5,0.1,0.7,0.3c0.1,0,0.1,0.3,0.2,0.3
		c0.1,0.1,0.2,0,0.2,0.1l0.4,0.6c0.1,0.1,0.2,0.1,0.4,0.3c0.1,0.1,0.1,0.3,0.2,0.4c0.1,0.1,0.2,0,0.2,0.1c0.1,0.1,0.1,0.3,0.1,0.4
		c0.1,0.3,0.4,0.4,0.5,0.7c0.1,0.1,0.1,0.3,0.1,0.6c0.1,0.4,0.5,0.7,0.5,1.4c-0.4,0.1-0.5,0.6-0.7,0.7l-0.2,0.1l-0.1,0.3
		c-0.1,0.1-0.4,0.1-0.5,0.3l-0.2,0.4c-0.2,0.3-0.5,0.3-0.7,0.4c-0.2,0.3-0.5,0.7-0.9,0.7v-0.1c-0.1-0.3,0.1-1.1,0.1-1.2
		c-0.1-0.1-0.1-0.3-0.2-0.4c-0.1-0.3-0.9-1.1-1-1.2c-0.2-0.1-0.6-0.3-0.7-0.4h-0.5l-0.1-0.1C237,8.8,236.6,9,236.5,9
		c-0.2,0.1-0.5,0-0.7,0.1c-0.4,0.1-0.4,0.3-0.6,0.6c-0.4,0.4-0.5,0.3-0.5,1.1c0,0.3,0,0.4,0,0.6c0.1,0.3,0.4,0.4,0.5,0.7
		c0.4,0.4,0.7,1.1,1.1,1.2c0.4,0.1,0.6,0.1,0.9,0.3c0.4,0.3,0.7,0.6,1.1,0.7c0.2,0.1,0.5,0.1,0.7,0.3c0.2,0.1,0.4,0.3,0.5,0.4
		c0.1,0,0.2,0,0.2,0.1c0.2,0.1,0.4,0.4,0.6,0.7l0.4,0.1c0.6,0.4,1.1,1.2,1.5,1.8l0.2,0.3c0.2,0.4,0.4,0.7,0.5,1.2
		c0.1,0.1,0.2,0.3,0.2,0.4l0.1,0.7c0,0.1,0.1,0.3,0.1,0.3v1.1c0,0.1,0.1,0.3,0.1,0.4c0,0.3,0,0.7-0.1,1.1c0,0.1-0.1,0.1-0.1,0.3v0.7
		c-0.1,0.3-0.1,0.7-0.1,1.2c-0.1,0.3-0.2,0.4-0.4,0.7c-0.1,0.1,0,0.3-0.1,0.6c0,0.1-0.1,0.1-0.1,0.3c-0.1,0.3-0.1,0.6-0.1,0.7
		c-0.1,0.1-0.2,0.3-0.2,0.3c-0.1,0.1-0.1,0.4-0.2,0.6c-0.1,0.3-0.4,0.3-0.5,0.4c-0.2,0.3-0.5,0.7-0.9,0.9h-0.1
		c-0.1,0-0.1,0.3-0.2,0.3c-0.4,0.1-0.6,0.3-1,0.4c-0.1,0-0.2,0.3-0.4,0.3c-0.1,0-0.1,0-0.2-0.1c-0.1,0-0.2,0.1-0.2,0.1H238
		c-0.1,0-0.9,0.3-0.9,0.1l-0.1-0.1h-0.1c-0.1,0-0.1-0.1-0.2-0.1h-0.5c-0.1,0-0.5,0-0.6-0.1l-0.1-0.1h-0.6c-0.1,0-0.2-0.1-0.4-0.3
		h-0.2c-0.2-0.1-0.4-0.3-0.5-0.4h-0.4c-0.1,0-0.1-0.1-0.1-0.3c-0.2-0.3-0.5-0.3-0.7-0.4c-0.2-0.3-0.4-0.6-0.6-0.9
		c-0.1-0.1-0.2-0.1-0.4-0.3c-0.1-0.1-0.1-0.3-0.1-0.4l-0.2-0.3c-0.1-0.1,0-0.3-0.1-0.3c0,0,0,0-0.1,0c0-0.1,0-0.3-0.1-0.3
		C231.2,26.6,231,26.1,231.1,25.5L231.1,25.5z"/>
</g>
</svg>
